<svg width="189" height="80" viewBox="0 0 189 80" fill="none" xmlns="http://www.w3.org/2000/svg">
<g clip-path="url(#clip0_16014_10095)">
<mask id="mask0_16014_10095" style="mask-type:luminance" maskUnits="userSpaceOnUse" x="0" y="0" width="189" height="80">
<path d="M189 0H0V80H189V0Z" fill="white"/>
</mask>
<g mask="url(#mask0_16014_10095)">
<path d="M133.172 52.5469C126.827 52.5469 121.684 57.6815 121.684 64.0155C121.684 70.349 126.827 75.4837 133.172 75.4837C139.516 75.4837 144.66 70.349 144.66 64.0155C144.66 57.6815 139.516 52.5469 133.172 52.5469ZM133.172 71.6522C128.946 71.6522 125.522 68.2327 125.522 64.0155C125.522 59.7975 128.946 56.3787 133.172 56.3787C137.397 56.3787 140.822 59.7975 140.822 64.0155C140.822 68.2327 137.397 71.6522 133.172 71.6522Z" fill="black"/>
<path d="M114.785 67.3249C113.623 66.4085 112.599 66.2335 112.631 66.0057C112.658 65.8108 113.203 65.8988 114.173 65.609C117.177 64.7427 118.956 62.4923 118.956 59.5414C118.956 54.3509 115.356 52.9375 110.157 52.9375H100.607V75.0287C100.607 75.0287 101.401 75.2216 102.537 75.2216C103.654 75.2216 104.462 75.0297 104.466 75.0287V66.6422H106.948C108.719 66.6445 110.049 66.8657 111.002 67.5881C112.027 68.3647 112.838 69.4285 113.913 71.1012C114.541 72.0797 116.104 75.025 116.108 75.0313C116.108 75.0313 117.03 75.2216 118.367 75.2216C119.683 75.2216 120.57 74.9211 120.57 74.9211C118.054 70.918 116.701 68.8359 114.785 67.3249ZM109.535 63.3552H104.466V56.183H110.221C113.554 56.183 115.107 56.8354 115.107 59.5414C115.107 62.4193 112.868 63.3552 109.535 63.3552Z" fill="black"/>
<path d="M162.976 52.9667C162.976 52.9667 162.976 62.7961 162.976 66.0724C162.976 69.625 160.872 71.8741 157.394 71.8741C153.916 71.8741 151.812 69.625 151.812 66.0724C151.812 62.7961 151.812 52.9667 151.812 52.9667C151.808 52.966 151.013 52.7734 149.87 52.7734C148.746 52.7734 147.943 52.9667 147.943 52.9667C147.943 52.9667 147.943 62.8944 147.943 66.2049C147.943 72.6584 152.089 75.4832 157.394 75.4832C162.699 75.4832 166.845 72.6584 166.845 66.2049C166.845 62.8944 166.845 52.9667 166.845 52.9667C166.845 52.9667 166.042 52.7734 164.918 52.7734C163.775 52.7738 162.978 52.966 162.976 52.9667Z" fill="black"/>
<path d="M181.187 52.9688C178.722 52.9688 171.328 52.9688 171.328 52.9688V75.0201C171.331 75.0204 172.127 75.213 173.27 75.213C174.394 75.213 175.208 75.0208 175.212 75.0201V67.887C175.212 67.887 179.793 67.887 181.32 67.887C185.906 67.887 188.999 64.9294 188.999 60.3445C188.999 55.7594 185.95 52.9688 181.187 52.9688ZM180.54 64.4426C179.208 64.4426 175.212 64.4426 175.212 64.4426V56.4134C175.212 56.4134 179.208 56.4134 180.54 56.4134C183.874 56.4134 185.309 57.5088 185.309 60.4455C185.309 63.3822 183.521 64.4426 180.54 64.4426Z" fill="black"/>
<path d="M86.0403 56.0786C89.1557 56.0786 91.4945 57.2161 93.4295 59.8858L96.2792 57.7921C93.7218 54.2684 90.9324 52.5469 85.7299 52.5469C79.3777 52.5469 74.4746 57.4398 74.4746 64.0619C74.4746 70.7189 79.1855 75.4841 85.0208 75.4841C86.6615 75.4841 88.1526 75.1271 89.4034 74.6012C90.5479 74.1374 91.1915 73.7864 91.9318 73.2848C92.2398 73.0759 92.5997 72.8296 92.8318 72.9129C93.029 72.9839 93.043 73.1997 93.043 73.4381C93.043 74.14 93.0483 74.977 93.0483 74.977C93.0483 74.977 93.6547 75.1703 94.5217 75.1703C95.3662 75.1703 95.9918 74.9273 95.9918 74.9273L95.9885 63.1499H86.0755V66.2944H92.5863C92.5691 68.6544 90.4318 71.9527 85.5483 71.9527C80.9383 71.9527 78.2422 68.2978 78.2422 64.0623C78.2419 59.2792 82.0228 56.0786 86.0403 56.0786Z" fill="black"/>
<path d="M82.7721 23.7191C79.5273 30.5636 76.7435 38.0009 74.416 45.874C74.416 45.874 75.2096 46.0656 76.4113 46.0656C77.5501 46.0656 78.3493 45.8737 78.3566 45.872C79.0846 43.2989 80.257 39.8263 80.257 39.8263C80.257 39.8263 83.3206 39.4667 85.372 39.64C87.7836 39.8439 89.0236 40.1829 90.1707 40.6932C90.6712 40.916 90.935 41.0743 91.068 41.4821C91.3384 42.3098 91.818 43.8902 92.3844 45.8684C92.3844 45.8684 93.2102 46.0652 94.367 46.0652C95.5637 46.0652 96.319 45.88 96.318 45.8757C94.0431 38.0005 91.2868 30.5633 87.9849 23.7188L82.7721 23.7191ZM85.7934 36.8285C84.1514 36.8285 82.2233 37.1044 81.0692 37.4889C82.4372 33.2948 84.6646 28.1183 85.0471 27.2597C85.1575 27.012 85.2689 26.9363 85.3853 26.9363C85.4937 26.9363 85.6045 27.0001 85.7006 27.2109C86.113 28.1183 88.3394 33.2948 89.6438 37.1838C88.7415 37.0426 87.5026 36.8285 85.7934 36.8285Z" fill="black"/>
<path d="M114.226 23.7788V39.7991C110.427 33.6946 106.623 28.1678 102.919 23.7788C102.919 23.7788 102.135 23.5859 101.015 23.5859C99.9122 23.5859 99.1153 23.7779 99.1113 23.7788L99.1117 45.8747C99.1166 45.876 99.8926 46.0676 101.005 46.0676C102.1 46.0676 102.892 45.8763 102.898 45.8747L102.899 28.7555C106.944 34.3148 110.745 40.0474 114.16 45.8747C114.16 45.8747 114.96 46.0676 116.09 46.0676C117.202 46.0676 118.012 45.8747 118.012 45.8747L118.013 23.7788C118.011 23.7782 117.234 23.5859 116.119 23.5859C115.023 23.5859 114.226 23.7788 114.226 23.7788Z" fill="black"/>
<path d="M121.303 27.3588H129.33V45.8758C129.334 45.8764 130.176 46.069 131.386 46.069C132.577 46.069 133.438 45.8768 133.442 45.8758V27.3588H141.47V23.7969H121.303V27.3588Z" fill="black"/>
<path d="M35.2795 22.9439C34.7653 22.8373 34.289 22.4581 34.0688 21.7918C33.8746 21.2044 33.9328 20.5643 34.0426 19.9554C34.609 16.8171 35.1165 13.6689 35.8516 10.5579C36.4469 8.03824 37.284 5.53716 38.819 3.41921C39.9229 1.89591 41.5229 0.588753 43.3762 0.125919C46.5398 -0.664285 47.8552 2.42016 46.7563 5.03581C45.8287 7.2434 43.5864 8.36529 41.9377 9.95234C38.9244 12.8529 37.9828 17.7521 37.1118 21.6646C36.8906 22.66 36.0428 23.1023 35.2795 22.9439Z" fill="url(#paint0_linear_16014_10095)"/>
<path d="M29.447 18.9401C28.3438 18.8983 27.2652 18.7429 26.2488 18.1622C25.2899 17.6147 24.0244 16.6389 22.8354 17.0526C21.5306 17.5065 21.0254 19.316 20.013 20.2008C18.5891 21.4449 16.8557 22.1245 15.2516 23.0784C13.8606 23.9055 12.5246 24.8062 11.2687 25.8282C8.77493 27.8578 6.60344 30.2789 4.85898 32.9782C1.4745 38.2144 -0.22074 44.4362 0.023051 50.6618C0.70121 67.9852 15.7435 81.3725 33.2791 79.8851C48.936 78.5567 61.1705 65.3792 61.2806 49.7249C61.3178 44.4265 59.9758 39.1571 57.3709 34.5383C54.8519 30.0717 51.199 26.2691 46.841 23.5595C42.3796 20.7855 37.223 19.1961 31.972 18.9743C31.1266 18.9385 30.2798 18.9717 29.447 18.9401Z" fill="url(#paint1_linear_16014_10095)"/>
<path d="M8.38365 7.52765C8.66636 6.69063 9.10904 5.9303 9.76691 5.39343C11.0414 4.35288 12.9212 4.53782 13.9762 5.79716C16.479 8.785 14.5835 13.3615 14.4838 16.8006C14.3996 19.6981 15.3751 22.6923 16.5452 25.2521C16.772 25.7485 17.1508 26.2538 17.221 26.8206C17.3384 27.7708 16.9263 28.5537 16.1903 28.9169C14.9407 29.5338 14.1425 28.225 13.6273 27.2937C12.4376 25.1422 11.4222 22.8287 10.4624 20.566C9.47423 18.2366 8.63909 15.8245 8.22767 13.3214C8.15383 12.8712 8.0933 12.4189 8.0484 11.9651C8.00749 11.554 7.97923 11.1417 7.96393 10.729C7.92735 9.73026 8.03177 8.56952 8.38365 7.52765Z" fill="url(#paint2_linear_16014_10095)"/>
<path d="M59.0538 45.5465C58.0663 34.1311 48.9342 24.8913 38.6854 24.9063C28.4681 24.9212 20.9997 34.1334 21.9765 45.4854C22.9533 56.8408 32.0142 66.0878 42.2424 66.1366C52.502 66.1851 60.0416 56.9656 59.0538 45.5465ZM53.7076 58.4889C51.0692 61.4386 47.4655 63.1209 43.5665 63.2414C39.1779 63.3749 34.8629 61.5963 31.4016 58.2349C27.9309 54.8646 25.7504 50.318 25.2529 45.4121C24.7261 40.218 26.2154 35.2337 29.3604 31.7292C32.0042 28.7836 35.5962 27.1056 39.5238 26.9884C39.6758 26.984 39.8285 26.9817 39.9815 26.9817C44.2956 26.9864 48.5368 28.8546 51.9076 32.2492C55.2808 35.6461 57.3914 40.1691 57.8424 44.9668C58.324 50.0899 56.8097 55.0213 53.7076 58.4889Z" fill="white"/>
</g>
</g>
<defs>
<linearGradient id="paint0_linear_16014_10095" x1="33.2857" y1="21.9537" x2="44.9661" y2="-0.0520553" gradientUnits="userSpaceOnUse">
<stop stop-color="#0066FF"/>
<stop offset="0.2" stop-color="#1677FF"/>
<stop offset="1" stop-color="#04A6FF"/>
</linearGradient>
<linearGradient id="paint1_linear_16014_10095" x1="1.40151" y1="58.7136" x2="58.9605" y2="37.7275" gradientUnits="userSpaceOnUse">
<stop stop-color="#0066FF"/>
<stop offset="0.2" stop-color="#1677FF"/>
<stop offset="1" stop-color="#04A6FF"/>
</linearGradient>
<linearGradient id="paint2_linear_16014_10095" x1="16.4747" y1="28.8751" x2="10.0968" y2="5.03125" gradientUnits="userSpaceOnUse">
<stop stop-color="#0066FF"/>
<stop offset="0.2" stop-color="#1677FF"/>
<stop offset="1" stop-color="#04A6FF"/>
</linearGradient>
<clipPath id="clip0_16014_10095">
<rect width="189" height="80" fill="white"/>
</clipPath>
</defs>
</svg>
