<?xml version="1.0" encoding="UTF-8"?>
<svg width="120" height="40" viewBox="0 0 120 40" version="1.1" xmlns="http://www.w3.org/2000/svg">
    <path fill="#1677FF" d="M25.3,0.3c-0.6-0.4-1.3-0.3-1.8,0.2L11.7,12.3L0,0.5C-0.5,0-1.2-0.1-1.8,0.3C-2.3,0.7-2.6,1.3-2.4,1.9
        l6.7,28.9c0.2,0.7,0.8,1.2,1.5,1.2h11.8c0.7,0,1.4-0.5,1.5-1.2l6.7-28.9C25.9,1.3,25.7,0.7,25.3,0.3z"/>
    <path fill="#1677FF" d="M60.3,0.3c-0.6-0.4-1.3-0.3-1.8,0.2L46.7,12.3L35,0.5C34.5,0,33.8-0.1,33.2,0.3c-0.5,0.4-0.8,1-0.6,1.6
        l6.7,28.9c0.2,0.7,0.8,1.2,1.5,1.2h11.8c0.7,0,1.4-0.5,1.5-1.2l6.7-28.9C60.9,1.3,60.7,0.7,60.3,0.3z"/>
    <path fill="#1677FF" d="M95.3,0.3c-0.6-0.4-1.3-0.3-1.8,0.2L81.7,12.3L70,0.5C69.5,0,68.8-0.1,68.2,0.3c-0.5,0.4-0.8,1-0.6,1.6
        l6.7,28.9c0.2,0.7,0.8,1.2,1.5,1.2h11.8c0.7,0,1.4-0.5,1.5-1.2l6.7-28.9C95.9,1.3,95.7,0.7,95.3,0.3z"/>
    <path fill="#1677FF" d="M115,8c2.8,0,5,2.2,5,5s-2.2,5-5,5s-5-2.2-5-5S112.2,8,115,8z"/>
</svg> 