<svg width="283" height="90" viewBox="0 0 283 90" fill="none" xmlns="http://www.w3.org/2000/svg">
<g clip-path="url(#clip0_16008_8825)">
<path d="M136.641 70.4237C136.643 69.3688 136.957 68.3382 137.544 67.4618C138.131 66.5854 138.965 65.9025 139.939 65.4993C140.914 65.096 141.987 64.9906 143.021 65.1961C144.056 65.4017 145.006 65.9091 145.753 66.6543C146.5 67.3995 147.009 68.3491 147.216 69.3834C147.424 70.4177 147.32 71.4902 146.919 72.4657C146.517 73.4412 145.836 74.276 144.961 74.8648C144.086 75.4535 143.055 75.7698 142.001 75.7737C141.299 75.7737 140.604 75.6352 139.956 75.3661C139.308 75.097 138.72 74.7026 138.225 74.2055C137.729 73.7085 137.337 73.1185 137.071 72.4696C136.804 71.8206 136.668 71.1253 136.671 70.4237M146.051 70.4237C145.99 69.6508 145.707 68.912 145.235 68.2973C144.762 67.6825 144.122 67.2182 143.39 66.9609C142.659 66.7036 141.869 66.6644 141.115 66.848C140.362 67.0316 139.679 67.4301 139.148 67.9951C138.617 68.56 138.262 69.2671 138.125 70.0302C137.989 70.7934 138.077 71.5797 138.379 72.2937C138.681 73.0076 139.185 73.6183 139.828 74.0515C140.471 74.4847 141.225 74.7217 142.001 74.7337C142.548 74.7197 143.088 74.5964 143.587 74.3709C144.086 74.1455 144.535 73.8225 144.908 73.4209C145.281 73.0194 145.569 72.5473 145.757 72.0326C145.945 71.5179 146.027 70.9709 146.001 70.4237M139.901 67.4237H142.151C143.601 67.4237 144.391 67.9237 144.391 69.2037C144.407 69.418 144.377 69.6332 144.303 69.835C144.229 70.0367 144.113 70.2204 143.962 70.3738C143.812 70.5271 143.63 70.6466 143.43 70.7242C143.23 70.8018 143.015 70.8357 142.801 70.8237L144.421 73.4737H143.271L141.711 70.8637H141.031V73.4737H139.901V67.4237ZM141.051 70.0037H142.051C142.711 70.0037 143.291 69.9037 143.291 69.1037C143.291 68.3037 142.641 68.2737 142.061 68.2737H141.061L141.051 70.0037Z" fill="white"/>
<path d="M119.431 13.7834C115.599 13.8356 111.875 15.0594 108.759 17.2904C105.643 19.5214 103.285 22.6526 102.001 26.2634C101.861 26.6334 101.381 28.1734 101.381 28.1734L90.3809 75.7734H115.631C124.311 75.7734 131.631 69.5134 133.731 61.0834L144.651 13.7734L119.431 13.7834Z" fill="#0DB04B"/>
<path d="M77.39 0C73.3536 0.0115557 69.4312 1.3401 66.2185 3.78387C63.0059 6.22764 60.6786 9.6531 59.59 13.54C59.4228 14.1259 59.2859 14.72 59.18 15.32L42 89.55H67.27C71.4007 89.5341 75.4081 88.1407 78.6576 85.5904C81.9071 83.0401 84.2129 79.4786 85.21 75.47L102.65 0H77.39Z" fill="#F27226"/>
<path d="M29 13.7812C25.0287 13.846 21.1797 15.1655 18.004 17.5509C14.8283 19.9363 12.4886 23.2653 11.32 27.0613C11.26 27.2313 11.21 27.4013 11.16 27.5813L10.74 29.2413L0 75.7712H25.85C29.5975 75.7133 33.2358 74.4998 36.2677 72.2966C39.2997 70.0933 41.5775 67.0077 42.79 63.4613L43.79 59.0312L54.25 13.7812H29Z" fill="#0E69AF"/>
<path d="M24.2909 29.2422H23.9009C22.0419 29.2628 20.2499 29.9393 18.8409 31.1522C17.5239 32.1669 16.5359 33.548 16.0009 35.1222L10.2109 60.2722H10.5409C12.4158 60.2528 14.223 59.5689 15.6409 58.3422C17.1495 57.1866 18.21 55.543 18.6409 53.6922L19.9109 48.2322H31.4109C33.2837 48.1924 35.0852 47.5071 36.5109 46.2922C38.0132 45.1394 39.0726 43.5044 39.5109 41.6622L39.5809 41.3322H21.4909L22.6909 36.1422H38.3409C40.1984 36.1226 41.9897 35.45 43.4009 34.2422C44.8937 33.0806 45.9507 31.4493 46.4009 29.6122L46.4809 29.2822L24.2909 29.2422Z" fill="white"/>
<path d="M88.1696 30.7607C87.6627 30.2632 87.0601 29.8738 86.3984 29.616C85.7366 29.3582 85.0294 29.2373 84.3196 29.2607H62.2296L55.0996 60.2607H55.4296C57.3045 60.2413 59.1117 59.5574 60.5296 58.3307C62.0382 57.1751 63.0986 55.5315 63.5296 53.6807L64.8096 48.1607H80.1096C81.9 48.3141 83.6831 47.7934 85.1096 46.7007C86.6474 45.3778 87.7287 43.6037 88.1996 41.6307L89.5396 35.8907C89.6384 35.4269 89.6919 34.9547 89.6996 34.4807C89.7161 33.7885 89.5886 33.1004 89.3252 32.46C89.0618 31.8197 88.6683 31.241 88.1696 30.7607ZM81.2796 41.3207H66.3896L67.5896 36.1207H82.4896L81.2796 41.3207Z" fill="white"/>
<path d="M133.109 30.7777C132.605 30.2759 132.003 29.8836 131.341 29.6255C130.678 29.3673 129.97 29.2489 129.259 29.2777H105.999V29.4977C105.901 29.9449 105.844 30.4001 105.829 30.8577C105.799 31.5541 105.91 32.2496 106.158 32.9013C106.406 33.553 106.784 34.1472 107.269 34.6477C107.774 35.1485 108.376 35.5401 109.038 35.7981C109.7 36.0562 110.409 36.1752 111.119 36.1477H115.999L110.439 60.2676H110.769C112.647 60.2498 114.458 59.5658 115.879 58.3376C117.385 57.1793 118.444 55.5368 118.879 53.6877L122.949 36.1477H134.449V35.9277C134.553 35.4647 134.607 34.992 134.609 34.5177C134.632 33.8243 134.511 33.1337 134.253 32.4899C133.994 31.846 133.605 31.2629 133.109 30.7777Z" fill="white"/>
<path d="M171 58.611C169.331 59.9506 167.228 60.6303 165.09 60.5209C163.041 60.5946 161.005 60.1654 159.16 59.2709L160.44 56.0009C161.833 56.7826 163.403 57.1924 165 57.191C166.151 57.2408 167.283 56.8871 168.2 56.191C168.598 55.8854 168.916 55.4889 169.128 55.0347C169.341 54.5805 169.441 54.0819 169.42 53.581C169.42 52.0876 168.147 50.781 165.6 49.661C164.1 49.0464 162.706 48.1994 161.47 47.151C160.828 46.582 160.317 45.8806 159.971 45.0952C159.626 44.3097 159.455 43.4588 159.47 42.6009C159.431 41.678 159.597 40.758 159.957 39.9071C160.317 39.0563 160.861 38.2959 161.55 37.681C163.085 36.4347 165.026 35.8006 167 35.901C168.872 35.8203 170.73 36.2562 172.37 37.161L171.19 40.161C169.953 39.454 168.555 39.0785 167.13 39.0709C166.097 39.0193 165.079 39.3384 164.26 39.971C163.902 40.2658 163.618 40.6395 163.428 41.0629C163.239 41.4862 163.151 41.9477 163.17 42.411C163.17 43.8643 164.503 45.1976 167.17 46.411C168.62 47.0156 169.969 47.8385 171.17 48.8509C171.811 49.4236 172.32 50.127 172.666 50.9137C173.011 51.7004 173.183 52.552 173.17 53.411C173.22 54.3847 173.05 55.3572 172.675 56.257C172.299 57.1569 171.727 57.9612 171 58.611Z" fill="white"/>
<path d="M188.689 57.8495C187.97 58.6864 187.079 59.3581 186.076 59.8186C185.073 60.2791 183.983 60.5175 182.879 60.5175C181.776 60.5175 180.685 60.2791 179.683 59.8186C178.68 59.3581 177.788 58.6864 177.069 57.8495C175.659 55.9473 174.952 53.6147 175.069 51.2495C174.952 48.8843 175.659 46.5517 177.069 44.6495C177.793 43.8199 178.686 43.1549 179.688 42.6992C180.69 42.2436 181.778 42.0078 182.879 42.0078C183.98 42.0078 185.068 42.2436 186.07 42.6992C187.073 43.1549 187.966 43.8199 188.689 44.6495C190.1 46.5517 190.807 48.8843 190.689 51.2495C190.807 53.6147 190.1 55.9473 188.689 57.8495ZM185.999 46.5995C185.664 46.0729 185.202 45.6394 184.655 45.3391C184.107 45.0387 183.493 44.8813 182.869 44.8813C182.245 44.8813 181.631 45.0387 181.084 45.3391C180.537 45.6394 180.074 46.0729 179.739 46.5995C178.96 48.0063 178.593 49.6038 178.679 51.2095C178.592 52.8184 178.96 54.4194 179.739 55.8295C180.067 56.3652 180.527 56.8078 181.075 57.1149C181.623 57.422 182.241 57.5832 182.869 57.5832C183.497 57.5832 184.115 57.422 184.663 57.1149C185.211 56.8078 185.671 56.3652 185.999 55.8295C186.779 54.4194 187.146 52.8184 187.059 51.2095C187.145 49.6038 186.778 48.0063 185.999 46.5995Z" fill="white"/>
<path d="M201.491 37.0905C199.138 37.0905 197.961 38.1139 197.961 40.1605V42.3705H201.661V45.0805H198.001V60.1605H194.471V45.0805H192.131V42.3705H194.471V40.1605C194.421 39.3167 194.561 38.4723 194.881 37.6899C195.201 36.9075 195.693 36.2071 196.321 35.6405C197.618 34.6127 199.248 34.0968 200.901 34.1905C201.278 34.1895 201.656 34.2095 202.031 34.2505V37.0905H201.491Z" fill="white"/>
<path d="M212.081 59.9963C211.372 60.2908 210.608 60.4273 209.841 60.3963C206.581 60.3963 204.951 58.6563 204.951 55.1763V45.0763H202.551V42.3662H205.001V38.2463L208.541 37.1562V42.3662H212.131V45.0763H208.541V54.9963C208.541 56.4863 209.331 57.2362 210.911 57.2362C211.329 57.2429 211.744 57.1647 212.131 57.0063L212.081 59.9963Z" fill="white"/>
<path d="M233.27 60.1572H229.54L226.37 48.8672C226.137 48.023 225.96 47.1645 225.84 46.2972H225.78C225.637 47.1637 225.447 48.0216 225.21 48.8672L222.05 60.1572H218.32L213 42.3672H216.6L219.66 54.1172C219.897 55.0366 220.064 55.9726 220.16 56.9172H220.23C220.4 55.9172 220.6 54.9172 220.82 54.1172L224.05 42.3672H227.45L230.69 54.1172C230.91 54.9472 231.1 55.8872 231.28 56.9172H231.35C231.438 55.9722 231.602 55.0358 231.84 54.1172L235 42.3672H238.6L233.27 60.1572Z" fill="white"/>
<path d="M253.719 59.2698C251.717 60.1947 249.522 60.6235 247.319 60.5198C242.199 60.5198 239.636 58.6598 239.629 54.9398C239.598 53.8904 239.902 52.8583 240.497 51.9934C241.093 51.1285 241.948 50.4758 242.939 50.1298C245.296 49.273 247.782 48.8265 250.289 48.8098V47.6798C250.289 45.6798 249.036 44.6798 246.529 44.6798C244.831 44.6683 243.153 45.0409 241.619 45.7698L240.689 43.2898C242.646 42.4447 244.758 42.0189 246.889 42.0398C251.449 42.0398 253.726 44.0398 253.719 48.0398V59.2698ZM250.289 51.2098C248.598 51.2368 246.917 51.4822 245.289 51.9398C244.632 52.0999 244.048 52.4774 243.632 53.0111C243.217 53.5448 242.993 54.2033 242.999 54.8798C242.999 56.8798 244.396 57.8798 247.189 57.8798C248.233 57.9387 249.278 57.7822 250.259 57.4198L250.289 51.2098Z" fill="white"/>
<path d="M265.079 45.1413C264.482 45.0059 263.871 44.9421 263.259 44.9513C262.305 44.9168 261.353 45.0732 260.459 45.4113V60.1613H256.859V43.2613C259.053 42.3896 261.399 41.9647 263.759 42.0113C264.429 41.9954 265.098 42.0389 265.759 42.1413L265.079 45.1413Z" fill="white"/>
<path d="M282.229 51.1831L270.419 52.8331C270.793 56.0464 272.609 57.6531 275.869 57.6531C277.572 57.7074 279.26 57.3326 280.779 56.5631L281.839 59.2731C279.898 60.1753 277.769 60.6037 275.629 60.5231C274.435 60.5903 273.24 60.4001 272.126 59.9654C271.011 59.5306 270.003 58.8614 269.169 58.0031C267.562 56.1305 266.745 53.7068 266.889 51.2431C266.769 48.8416 267.518 46.4772 268.999 44.5831C269.721 43.7286 270.629 43.0515 271.654 42.6041C272.678 42.1567 273.792 41.9511 274.909 42.0031C275.91 41.9472 276.91 42.1066 277.844 42.4706C278.777 42.8347 279.621 43.3948 280.319 44.1131C281.682 45.6937 282.38 47.7395 282.269 49.8231C282.269 50.4231 282.259 50.8731 282.229 51.1831ZM278.799 49.2731C278.799 46.1931 277.466 44.6531 274.799 44.6531C274.164 44.6232 273.53 44.7455 272.95 45.0098C272.371 45.2742 271.864 45.673 271.469 46.1731C270.543 47.4057 270.076 48.923 270.149 50.4631L278.799 49.2731Z" fill="white"/>
</g>
<defs>
<clipPath id="clip0_16008_8825">
<rect width="283" height="90" fill="white"/>
</clipPath>
</defs>
</svg>
