<?xml version="1.0" encoding="UTF-8"?>
<svg width="100" height="100" viewBox="0 0 100 100" version="1.1" xmlns="http://www.w3.org/2000/svg">
    <path fill="#FF5722" d="M50,0 C77.6142375,0 100,22.3857625 100,50 C100,77.6142375 77.6142375,100 50,100 C22.3857625,100 0,77.6142375 0,50 C0,22.3857625 22.3857625,0 50,0 Z M50,10 C27.90861,10 10,27.90861 10,50 C10,72.09139 27.90861,90 50,90 C72.09139,90 90,72.09139 90,50 C90,27.90861 72.09139,10 50,10 Z M50,20 C66.5685425,20 80,33.4314575 80,50 C80,66.5685425 66.5685425,80 50,80 C33.4314575,80 20,66.5685425 20,50 C20,33.4314575 33.4314575,20 50,20 Z"/>
</svg> 