<svg width="434" height="330" viewBox="0 0 434 330" fill="none" xmlns="http://www.w3.org/2000/svg">
<mask id="mask0_16020_191772" style="mask-type:luminance" maskUnits="userSpaceOnUse" x="0" y="175" width="434" height="155">
<path d="M433.082 273.311C433.082 286.815 422.213 300.205 398.306 300.205C385.623 300.205 374.514 294.845 367.762 288.161L380.194 275.751C383.696 279.401 390.459 283.177 398.306 283.177C407.362 283.177 412.313 279.036 412.313 273.801C412.313 256.886 370.294 265.646 370.294 233.881C370.294 220.981 382.007 207.716 402.891 207.716C415.814 207.716 425.475 212.712 432.592 219.761L420.274 232.17C416.293 228.155 410.739 224.745 403.37 224.745C395.158 224.745 391.052 229.615 391.052 233.87C391.052 247.876 433.082 241.067 433.082 273.311ZM352.717 279.823V296.864C348.737 297.959 343.422 298.689 337.263 298.689C320.359 298.689 310.334 287.374 310.334 274.349V226.878H293.795V209.838H310.334V184.882H331.469V209.838H351.759V226.878H331.469V271.303C331.469 277.873 334.731 281.648 343.182 281.648C346.319 281.648 349.82 280.918 352.717 279.823ZM281.42 242.401V297.172H260.285V245.446C260.285 232.056 253.886 225.612 243.382 225.612C231.668 225.612 222.851 234.371 222.851 253.362V297.183H201.716V209.552H222.247V223.057C226.113 214.046 236.014 207.716 249.415 207.716C268.258 207.716 281.42 220.981 281.42 242.401ZM181.14 209.849V297.48H160.006V209.849H181.14V209.849ZM136.464 175.769V297.48H115.329V175.769H136.464ZM91.9017 209.849V289.564C91.9017 311.839 74.0289 329.724 46.2559 329.724C29.4666 329.724 18.3574 323.519 11.8447 317.063L23.9234 304.893C27.904 308.783 34.9071 312.683 45.2978 312.683C59.7831 312.683 70.6528 303.308 70.6528 289.564V287.408C65.3605 291.469 58.1749 295.472 44.4423 295.94C24.9955 296.191 0.815281 280.2 0.0625 252.404C0.0625 225.623 20.8552 207.169 42.8227 206.644C56.5439 206.644 65.8282 209.838 71.3828 216.019V209.838H91.9017V209.849ZM45.9137 278.192C60.5701 278.192 72.4549 266.296 72.4549 251.617C72.4549 236.938 60.5701 225.041 45.9137 225.041C31.2573 225.041 19.3725 236.938 19.3725 251.617C19.3725 266.296 31.2573 278.192 45.9137 278.192Z" fill="white"/>
</mask>
<g mask="url(#mask0_16020_191772)">
<mask id="mask1_16020_191772" style="mask-type:luminance" maskUnits="userSpaceOnUse" x="-23" y="-25" width="478" height="366">
<path d="M454.732 -24.7106H-22.3945V340.947H454.732V-24.7106Z" fill="white"/>
</mask>
<g mask="url(#mask1_16020_191772)">
<path d="M437.087 171.754H-3.95117V333.738H437.087V171.754Z" fill="#0B0B0B"/>
</g>
</g>
<mask id="mask2_16020_191772" style="mask-type:luminance" maskUnits="userSpaceOnUse" x="117" y="11" width="154" height="162">
<path d="M183.957 11.3889L216.053 57.9929L270.493 57.1603L238.853 102.612L256.874 156.698L205.24 138.563L162.32 172.518L162.126 115.455L117.404 82.7776L168.787 65.9085L183.957 11.3889Z" fill="white"/>
</mask>
<g mask="url(#mask2_16020_191772)">
<mask id="mask3_16020_191772" style="mask-type:luminance" maskUnits="userSpaceOnUse" x="-38" y="-66" width="531" height="440">
<path d="M432.604 -65.6833L-37.9854 13.0425L22.3481 373.69L492.938 294.965L432.604 -65.6833Z" fill="white"/>
</mask>
<g mask="url(#mask3_16020_191772)">
<path d="M263.978 -6.05376L102.975 20.8807L129.932 182.019L290.935 155.084L263.978 -6.05376Z" fill="#FFF240"/>
</g>
</g>
<mask id="mask4_16020_191772" style="mask-type:luminance" maskUnits="userSpaceOnUse" x="146" y="-1" width="154" height="163">
<path d="M213.111 -0.00561523L245.264 46.5983L299.464 45.7999L267.733 91.2747L286.142 145.292L234.394 127.18L191.372 161.146L191.189 104.083L146.376 71.4173L197.884 54.5254L213.111 -0.00561523Z" fill="white"/>
</mask>
<g mask="url(#mask4_16020_191772)">
<mask id="mask5_16020_191772" style="mask-type:luminance" maskUnits="userSpaceOnUse" x="-36" y="-62" width="532" height="441">
<path d="M434.877 -61.058L-35.7129 17.6678L24.6206 378.316L495.21 299.59L434.877 -61.058Z" fill="white"/>
</mask>
<g mask="url(#mask5_16020_191772)">
<path d="M292.95 -17.4126L131.947 9.52185L158.904 170.66L319.907 143.725L292.95 -17.4126Z" fill="#0BAEEC"/>
</g>
</g>
<mask id="mask6_16020_191772" style="mask-type:luminance" maskUnits="userSpaceOnUse" x="127" y="19" width="154" height="162">
<path d="M194.221 19.6807L226.374 66.2846L280.574 65.4748L248.832 110.961L267.241 164.979L215.493 146.855L172.47 180.833L172.288 123.77L127.475 91.1036L178.983 74.2116L194.221 19.6807Z" fill="white"/>
</mask>
<g mask="url(#mask6_16020_191772)">
<mask id="mask7_16020_191772" style="mask-type:luminance" maskUnits="userSpaceOnUse" x="-40" y="-64" width="532" height="440">
<path d="M431.367 -63.9061L-39.2227 14.8197L21.1108 375.468L491.7 296.742L431.367 -63.9061Z" fill="white"/>
</mask>
<g mask="url(#mask7_16020_191772)">
<path d="M274.061 2.27205L113.058 29.2065L140.015 190.345L301.018 163.41L274.061 2.27205Z" fill="#EC272B"/>
</g>
</g>
<mask id="mask8_16020_191772" style="mask-type:luminance" maskUnits="userSpaceOnUse" x="137" y="12" width="154" height="162">
<path d="M204.021 12.073L236.186 58.677L290.374 57.8672L258.644 103.353L277.052 157.371L225.304 139.247L182.282 173.225L182.099 116.162L137.286 83.4959L188.795 66.604L204.021 12.073Z" fill="white"/>
</mask>
<g mask="url(#mask8_16020_191772)">
<mask id="mask9_16020_191772" style="mask-type:luminance" maskUnits="userSpaceOnUse" x="-38" y="-63" width="532" height="440">
<path d="M432.756 -62.3917L-37.833 16.3341L22.5005 376.982L493.09 298.256L432.756 -62.3917Z" fill="white"/>
</mask>
<g mask="url(#mask9_16020_191772)">
<path d="M283.857 -5.3333L122.854 21.6012L149.812 182.739L310.815 155.805L283.857 -5.3333Z" fill="#0B0B0B"/>
</g>
</g>
</svg>
