<?xml version="1.0" encoding="UTF-8"?>
<svg width="120" height="40" viewBox="0 0 120 40" version="1.1" xmlns="http://www.w3.org/2000/svg">
    <!-- Simple wordmark -->
    <path fill="#FF7555" d="M23.9,8.4c6.6,0,12,5.4,12,12s-5.4,12-12,12s-12-5.4-12-12S17.3,8.4,23.9,8.4z M23.9,13.4
        c-3.9,0-7,3.1-7,7s3.1,7,7,7s7-3.1,7-7S27.8,13.4,23.9,13.4z"/>
    <path fill="#FF7555" d="M45,8.4h5v24h-5V8.4z"/>
    <path fill="#FF7555" d="M60,8.4h5v24h-5V8.4z"/>
    <path fill="#FF7555" d="M75,8.4h5v19h10v5H75V8.4z"/>
    <path fill="#FF7555" d="M100,8.4h-10v5h5v19h5v-19h5v-5h-5z"/>
</svg> 