<svg width="434" height="331" viewBox="0 0 434 331" fill="none" xmlns="http://www.w3.org/2000/svg">
<mask id="mask0_16008_9123" style="mask-type:luminance" maskUnits="userSpaceOnUse" x="-1" y="176" width="435" height="155">
<path d="M433.014 274.103C433.014 287.607 422.144 300.998 398.238 300.998C385.555 300.998 374.446 295.637 367.693 288.953L380.126 276.544C383.627 280.193 390.391 283.969 398.238 283.969C407.294 283.969 412.244 279.829 412.244 274.593C412.244 257.679 370.226 266.438 370.226 234.673C370.226 221.773 381.939 208.509 402.823 208.509C415.746 208.509 425.406 213.504 432.524 220.553L420.205 232.962C416.225 228.948 410.67 225.537 403.302 225.537C395.09 225.537 390.984 230.408 390.984 234.662C390.984 248.668 433.014 241.859 433.014 274.103ZM352.649 280.615V297.656C348.669 298.751 343.354 299.481 337.195 299.481C320.291 299.481 310.266 288.166 310.266 275.141V227.67H293.727V210.63H310.266V185.674H331.401V210.63H351.691V227.67H331.401V272.095C331.401 278.665 334.663 282.44 343.114 282.44C346.251 282.44 349.752 281.71 352.649 280.615ZM281.352 243.193V297.964H260.217V246.239C260.217 232.848 253.819 226.404 243.314 226.404C231.601 226.404 222.784 235.164 222.784 254.154V297.975H201.649V210.345H222.179V223.849C226.046 214.839 235.946 208.509 249.348 208.509C268.19 208.509 281.352 221.773 281.352 243.193ZM181.073 210.641V298.272H159.938V210.641H181.073V210.641ZM136.397 176.561V298.272H115.262V176.561H136.397ZM91.8349 210.641V290.356C91.8349 312.631 73.9621 330.516 46.1892 330.516C29.4 330.516 18.2909 324.311 11.7782 317.855L23.8568 305.685C27.8374 309.575 34.8405 313.475 45.2311 313.475C59.7164 313.475 70.5861 304.1 70.5861 290.356V288.2C65.2938 292.261 58.1082 296.264 44.3757 296.732C24.929 296.983 0.748871 280.992 -0.00390625 253.196C-0.00390625 226.416 20.7887 207.961 42.7561 207.436C56.4772 207.436 65.7614 210.63 71.316 216.812V210.63H91.8349V210.641ZM45.8471 278.984C60.5034 278.984 72.3882 267.088 72.3882 252.409C72.3882 237.73 60.5034 225.834 45.8471 225.834C31.1907 225.834 19.306 237.73 19.306 252.409C19.306 267.088 31.1907 278.984 45.8471 278.984Z" fill="white"/>
</mask>
<g mask="url(#mask0_16008_9123)">
<mask id="mask1_16008_9123" style="mask-type:luminance" maskUnits="userSpaceOnUse" x="-23" y="-24" width="478" height="366">
<path d="M454.662 -23.917H-22.4619V341.739H454.662V-23.917Z" fill="white"/>
</mask>
<g mask="url(#mask1_16008_9123)">
<path d="M437.017 172.546H-4.01953V334.53H437.017V172.546Z" fill="white"/>
</g>
</g>
<mask id="mask2_16008_9123" style="mask-type:luminance" maskUnits="userSpaceOnUse" x="117" y="12" width="154" height="162">
<path d="M183.891 12.1824L215.987 58.7861L270.426 57.9535L238.787 103.405L256.808 157.491L205.174 139.356L162.255 173.311L162.061 116.248L117.339 83.5707L168.722 66.7017L183.891 12.1824Z" fill="white"/>
</mask>
<g mask="url(#mask2_16008_9123)">
<mask id="mask3_16008_9123" style="mask-type:luminance" maskUnits="userSpaceOnUse" x="-39" y="-65" width="532" height="440">
<path d="M432.536 -64.8897L-38.0508 13.8357L22.2824 374.482L492.87 295.757L432.536 -64.8897Z" fill="white"/>
</mask>
<g mask="url(#mask3_16008_9123)">
<path d="M263.914 -5.26079L102.912 21.6736L129.869 182.811L290.871 155.876L263.914 -5.26079Z" fill="#FFF240"/>
</g>
</g>
<mask id="mask4_16008_9123" style="mask-type:luminance" maskUnits="userSpaceOnUse" x="146" y="0" width="154" height="162">
<path d="M213.042 0.787842L245.195 47.3916L299.395 46.5932L267.664 92.0678L286.073 146.085L234.326 127.973L191.303 161.939L191.121 104.876L146.308 72.2104L197.816 55.3186L213.042 0.787842Z" fill="white"/>
</mask>
<g mask="url(#mask4_16008_9123)">
<mask id="mask5_16008_9123" style="mask-type:luminance" maskUnits="userSpaceOnUse" x="-36" y="-61" width="532" height="441">
<path d="M434.806 -60.2634L-35.7812 18.462L24.552 379.108L495.139 300.383L434.806 -60.2634Z" fill="white"/>
</mask>
<g mask="url(#mask5_16008_9123)">
<path d="M292.883 -16.6187L131.881 10.3157L158.838 171.453L319.84 144.519L292.883 -16.6187Z" fill="#0BAEEC"/>
</g>
</g>
<mask id="mask6_16008_9123" style="mask-type:luminance" maskUnits="userSpaceOnUse" x="127" y="20" width="154" height="162">
<path d="M194.155 20.4744L226.308 67.0781L280.508 66.2683L248.766 111.754L267.175 165.772L215.427 147.648L172.405 181.626L172.222 124.563L127.409 91.897L178.917 75.0051L194.155 20.4744Z" fill="white"/>
</mask>
<g mask="url(#mask6_16008_9123)">
<mask id="mask7_16008_9123" style="mask-type:luminance" maskUnits="userSpaceOnUse" x="-40" y="-64" width="532" height="441">
<path d="M431.301 -63.112L-39.2861 15.6134L21.0471 376.26L491.634 297.534L431.301 -63.112Z" fill="white"/>
</mask>
<g mask="url(#mask7_16008_9123)">
<path d="M273.994 3.06612L112.992 30.0005L139.949 191.138L300.951 164.203L273.994 3.06612Z" fill="#EC272B"/>
</g>
</g>
<mask id="mask8_16008_9123" style="mask-type:luminance" maskUnits="userSpaceOnUse" x="137" y="12" width="154" height="163">
<path d="M203.953 12.8665L236.117 59.4702L290.305 58.6604L258.575 104.146L276.983 158.164L225.236 140.04L182.213 174.018L182.031 116.955L137.218 84.289L188.726 67.3972L203.953 12.8665Z" fill="white"/>
</mask>
<g mask="url(#mask8_16008_9123)">
<mask id="mask9_16008_9123" style="mask-type:luminance" maskUnits="userSpaceOnUse" x="-38" y="-62" width="532" height="440">
<path d="M432.69 -61.5982L-37.8975 17.1272L22.4357 377.774L493.023 299.048L432.69 -61.5982Z" fill="white"/>
</mask>
<g mask="url(#mask9_16008_9123)">
<path d="M283.793 -4.54045L122.791 22.3939L149.748 183.531L310.75 156.597L283.793 -4.54045Z" fill="white"/>
</g>
</g>
</svg>
