<svg width="697" height="425" viewBox="0 0 697 425" fill="none" xmlns="http://www.w3.org/2000/svg">
<g clip-path="url(#clip0_16020_191819)">
<mask id="mask0_16020_191819" style="mask-type:luminance" maskUnits="userSpaceOnUse" x="0" y="0" width="697" height="425">
<path d="M697 0H0V425H697V0Z" fill="white"/>
</mask>
<g mask="url(#mask0_16020_191819)">
<path d="M343.06 202.961C343.049 194.464 343.025 186.468 343.033 178.472C343.038 171.89 343.26 171.679 349.636 171.661C356.895 171.641 356.896 171.641 356.973 178.19C357.018 182.019 357.05 185.848 357.127 189.677C357.132 189.934 357.466 190.184 358.044 190.995C362.159 185.396 366.783 180.52 372.596 176.921C398.729 160.738 438.742 167.504 447.833 206.607C453.757 232.091 452.031 256.974 436.088 279.088C419.847 301.615 385.965 305.975 365.689 288.493C362.51 285.752 360.206 282.277 356.799 278.374C356.799 283.225 356.782 287.255 356.802 291.285C356.893 310.104 357.186 328.921 356.618 347.743C356.507 351.429 355.078 352.182 351.841 352.225C343.411 352.336 343.418 352.447 343.398 343.887C343.287 297.078 343.173 250.27 343.06 202.961ZM422.261 190.195C420.224 188.19 417.863 186.652 415.323 185.37C393.666 174.435 367.248 186.493 359.428 210.899C355.524 223.082 357.108 235.611 357.203 248.034C357.244 253.428 358.747 258.559 361.166 263.356C367.929 276.77 378.119 285.216 393.763 286.046C409.717 286.892 420.934 279.623 428.302 266.04C435.919 251.997 437.766 236.83 436.099 221.082C434.873 209.506 431.238 199.052 422.261 190.195Z" fill="#474747"/>
<path d="M643 235.879C633.003 235.893 623.506 235.911 614.008 235.917C607.272 235.922 606.829 236.108 607.372 243.028C608.994 263.68 618.677 280.822 637.961 285.042C653.925 288.535 668.632 284.205 681.981 274.997C683.861 273.7 685.457 271.861 687.899 271.515C691.333 278.404 689.656 285.315 683.415 288.786C665.344 298.837 646.458 302.805 626.397 295.38C614.391 290.936 605.526 282.482 600.566 270.947C589.383 244.937 588.755 218.869 603.539 193.829C618.466 168.546 649.205 163.088 670.563 174.094C683.219 180.615 689.324 192.09 692.977 205.139C695.229 213.184 695.529 221.52 695.99 229.825C696.239 234.308 694.602 236.028 689.985 235.967C674.492 235.761 658.995 235.883 643 235.879ZM669.479 222.958C671.812 222.957 674.154 222.825 676.476 222.982C680.631 223.263 682.579 221.866 681.197 217.461C680.901 216.519 680.804 215.505 680.698 214.515C678.247 191.662 662.825 179.347 640.168 182.306C623.768 184.449 608.723 201.932 608.618 222.962C628.571 222.962 648.528 222.962 669.479 222.958Z" fill="#474747"/>
<path d="M161.831 170.447C170.456 168.354 178.697 168.11 186.903 170.313C202.452 174.487 213.038 187.749 215.372 205.255C216.169 211.227 216.354 217.172 216.351 223.158C216.341 245.484 216.169 267.812 216.472 290.134C216.546 295.561 214.41 296.553 209.733 296.356C202.888 296.068 202.809 296.249 202.796 289.881C202.744 265.556 202.727 241.232 202.661 216.907C202.645 211.031 201.461 205.309 199.467 199.829C193.046 182.178 172.36 175.813 154.88 186.433C142.845 193.744 135.902 205.003 135.448 218.964C134.691 242.266 135.064 265.604 134.939 288.927C134.904 295.497 128.901 298.984 122.843 295.98C120.761 294.947 121.107 292.943 121.096 291.162C121.052 284.165 121.065 277.167 121.062 270.17C121.052 239.514 121.03 208.858 121.067 178.202C121.07 175.992 120.161 172.804 122.947 172.071C126.409 171.16 130.228 171.056 133.754 172.293C134.918 172.702 134.684 174.255 134.672 175.443C134.629 179.689 134.655 183.936 135.307 188.403C142.396 179.601 150.69 173.291 161.831 170.447Z" fill="#474747"/>
<path d="M311.33 190.052C303.17 186.545 295.587 182.517 286.689 181.725C273.763 180.575 263.005 185.972 259.259 196.153C256.402 203.918 258.842 213.08 265.259 218.285C271.417 223.279 278.787 226.104 285.817 229.518C291.516 232.286 297.009 235.377 302.382 238.75C321.683 250.869 319.995 281.912 299.322 292.965C282.808 301.794 265.773 301.091 248.863 293.395C245.087 291.677 243.097 289.229 243.641 284.873C244.045 281.641 243.223 278.294 244.426 274.242C249.899 278.085 255.082 281.566 261.061 283.621C269.677 286.583 278.368 286.875 287.096 284.688C295.142 282.673 300.065 277.365 301.422 269.144C302.721 261.276 300.42 254.671 293.792 249.836C288.923 246.283 283.666 243.439 278.152 241.035C272.193 238.436 266.37 235.589 260.854 232.106C246.366 222.959 242.184 211.012 244.936 195.441C247.173 182.782 259.839 172.136 274.395 169.679C285.343 167.83 295.878 169.05 306.267 172.804C310.801 174.442 313.199 177.04 312.367 182.075C311.939 184.664 312.942 187.395 311.33 190.052Z" fill="#474747"/>
<path d="M604.999 381.323C590.848 381.325 577.198 381.297 563.547 381.342C558.464 381.36 557.777 382.326 558.775 387.34C561.201 399.531 568.304 407.875 580.118 411.424C592.035 415.003 602.397 411.57 610.875 402.451C613.45 399.681 621.527 400.193 623.638 403.219C624.779 404.855 623.593 406.05 622.71 407.212C612.144 421.131 597.88 426.754 580.981 423.845C563.888 420.902 552.408 410.269 548.075 393.494C540.813 365.376 561.579 339.923 590.404 340.754C610.445 341.332 626.925 356.533 629.097 376.307C629.504 380.013 628.246 381.479 624.475 381.372C618.154 381.193 611.825 381.323 604.999 381.323ZM610.238 362.227C595.289 345.645 567.826 352.94 562.758 369.194C579.966 369.194 597.055 369.194 614.292 369.194C613.857 366.192 612.131 364.557 610.238 362.227Z" fill="#006600"/>
<path d="M217.835 341.658C233.937 345.871 244.839 354.991 248.838 371.246C249.036 372.051 249.191 372.875 249.269 373.699C249.953 380.868 249.54 381.327 242.263 381.329C223.28 381.335 204.296 381.318 185.313 381.326C179.17 381.329 178.257 382.585 179.683 388.93C184.783 411.635 211.821 420.346 229.144 404.865C235.965 398.77 236.521 398.722 244.772 403.52C245.086 405.001 244.205 406.071 243.445 407.139C233.408 421.249 214.803 427.768 197.78 423.161C181.196 418.674 169.315 404.018 167.564 386.725C164.62 357.635 190.89 335.982 217.835 341.658ZM190.152 359.594C187.38 362.447 183.816 364.754 183.043 369.28C200.598 369.28 217.727 369.28 235.024 369.28C228.746 352.659 205.606 347.583 190.152 359.594Z" fill="#006600"/>
<path d="M526.788 199.963C526.786 191.968 526.902 184.471 526.733 176.98C526.648 173.235 527.823 171.596 531.854 171.593C540.313 171.586 540.315 171.4 540.329 179.959C540.336 183.618 540.331 187.276 540.331 191.988C543.421 187.681 545.369 183.733 548.317 180.468C557.387 170.422 568.634 168.007 581.46 170.333C585.01 170.977 586.71 172.602 586.394 176.372C586.147 179.324 586.345 182.313 586.345 184.964C584.42 186.289 583.361 185.148 582.23 184.631C572.819 180.337 563.559 181.757 555.989 188.977C546.578 197.952 542.709 209.546 541.394 222.051C539.072 244.132 540.813 266.304 540.353 288.43C540.204 295.613 535.507 298.8 528.86 296.056C526.647 295.143 526.856 293.187 526.841 291.4C526.786 284.738 526.802 278.076 526.801 271.414C526.795 247.764 526.792 224.113 526.788 199.963Z" fill="#474747"/>
<path d="M263.808 416.814C263.809 395.507 263.803 374.686 263.818 353.864C263.823 347.425 264.454 346.112 270.467 347.301C277.393 348.67 282.456 344.324 288.549 343.337C307.862 340.209 324.192 353.567 324.312 373.22C324.4 387.545 324.238 401.871 324.4 416.195C324.448 420.377 323.717 422.588 318.7 422.485C314.034 422.39 312.684 420.802 312.741 416.33C312.923 402.008 312.864 387.68 312.707 373.357C312.61 364.47 306.937 357.456 298.42 355.145C290.158 352.903 281.904 356.183 277.176 363.404C275.723 365.623 275.316 367.929 275.324 370.494C275.369 385.985 275.316 401.477 275.368 416.968C275.378 420.051 275.328 422.709 271.035 422.361C267.546 422.079 263.131 423.415 263.808 416.814Z" fill="#006600"/>
<path d="M479.08 364.963C479.105 360.131 479.219 355.797 479.131 351.467C479.039 346.951 482.018 347.069 485.201 347.028C488.537 346.985 490.457 347.757 490.411 351.747C490.24 366.743 490.512 381.744 490.283 396.738C490.082 409.859 478.115 422.143 464.76 423.206C457.563 423.779 450.315 423.613 443.813 420C434.372 414.753 428.994 406.556 428.74 395.723C428.4 381.233 428.807 366.727 428.563 352.234C428.487 347.764 430.478 347.003 434.257 346.955C438.218 346.904 440.07 348.149 440.018 352.371C439.858 365.2 440.166 378.038 439.85 390.861C439.479 405.921 452.322 413.98 463.499 411.719C472.644 409.869 479.715 400.956 479.497 390.942C479.312 382.449 479.216 373.955 479.08 364.963Z" fill="#006600"/>
<path d="M482.934 221.959C482.904 245.439 482.849 268.418 482.875 291.398C482.879 294.622 481.942 296.574 478.327 296.266C477.335 296.181 476.314 296.148 475.332 296.283C470.361 296.97 468.649 295.006 468.706 289.885C468.94 268.9 468.784 247.911 468.771 226.923C468.76 210.433 468.728 193.942 468.75 177.452C468.758 171.658 468.903 171.797 476.83 171.586C481.281 171.468 482.843 172.633 482.747 177.499C482.457 192.145 482.823 206.805 482.934 221.959Z" fill="#474747"/>
<path d="M653.211 405.603C659.445 412.562 666.407 413.028 671.948 407.17C676.932 401.901 675.94 394.006 669.271 389.043C663.677 384.879 657.343 381.648 652.034 377.177C640.82 367.731 644.21 349.749 657.862 344.502C666.349 341.24 676.674 344.697 681.008 352.252C685.659 360.357 683.219 364.783 673.482 365.602C672.792 363.458 672.319 361.164 671.336 359.114C669.395 355.068 664.51 353.796 660.732 356.124C656.907 358.48 655.768 363.304 658.263 366.957C660.196 369.789 663.084 371.52 665.979 373.174C670.176 375.57 674.362 377.991 678.093 381.079C686.169 387.761 688.752 398.834 684.633 408.72C680.655 418.267 671.728 423.269 660.345 422.329C650.526 421.518 642.625 414.247 640.295 404.245C639.401 400.406 640.097 398.087 644.348 397.495C646.433 397.205 648.401 395.989 650.9 396.807C651.563 399.574 651.26 402.721 653.211 405.603Z" fill="#006600"/>
<path d="M113.203 376.851C116.636 384.799 119.919 392.399 123.461 400.597C125.876 398.073 126.648 395.505 127.684 393.166C133.476 380.087 139.195 366.975 144.88 353.849C147.997 346.655 151.915 345.125 160.278 348.425C157.785 354.169 155.345 359.927 152.797 365.637C145.004 383.103 137.132 400.536 129.388 418.024C128.217 420.669 127.02 422.507 123.646 422.421C120.394 422.338 119.594 420.31 118.545 417.926C109.035 396.309 99.4409 374.729 89.8813 353.134C89.1578 351.5 88.2533 349.902 88.2964 347.949C91.665 346.62 95.0198 347.266 98.2853 347.277C100.984 347.286 101.541 349.853 102.381 351.765C105.993 359.987 109.505 368.252 113.203 376.851Z" fill="#006600"/>
<path d="M91.3495 39.9629C91.3497 49.8812 91.3497 59.2995 91.3497 69.2682C82.415 67.3778 76.0873 69.9004 71.5487 76.7536C70.2317 78.7423 68.7418 77.9561 67.4155 76.6059C53.6468 62.5886 39.8361 48.612 26.1472 34.5171C22.9409 31.2158 22.9569 27.3139 25.7838 24.7878C29.307 21.6395 32.599 22.862 35.479 25.7364C47.9746 38.2075 60.394 50.7549 72.8653 63.2504C74.3412 64.729 75.4564 66.7414 77.9141 67.0943C79.3666 65.3031 78.734 63.2237 78.7419 61.3249C78.8118 44.501 78.7874 27.6768 78.8137 10.8528C78.8163 9.19273 78.8086 7.5049 79.0886 5.87866C79.7324 2.13832 81.8524 -0.360351 85.8556 0.0425272C89.7695 0.436402 91.4311 2.96509 91.3844 6.9811C91.2586 17.807 91.3463 28.6354 91.3495 39.9629Z" fill="#E91D26"/>
<path d="M78.8104 203.957C78.796 195.13 78.8223 186.803 78.7396 178.477C78.7192 176.425 78.9623 174.484 79.9344 172.689C81.5415 169.721 84.0808 168.264 87.3857 169.058C90.3966 169.781 92.2913 171.787 92.3206 175.122C92.3294 176.122 92.3463 177.121 92.3463 178.12C92.3477 215.258 92.3678 252.396 92.2954 289.535C92.2912 291.686 93.5311 294.83 90.7686 295.768C87.5092 296.875 83.7456 296.92 80.4655 295.705C78.0061 294.795 78.8495 291.951 78.8452 289.892C78.7953 266.077 78.8111 242.262 78.8098 218.447C78.8095 213.783 78.8105 209.12 78.8104 203.957Z" fill="#474747"/>
<path d="M383.902 358.945C380.258 358.378 375.633 360.846 375.119 354.739C374.552 347.988 375.522 346.563 382.406 347.157C390.65 347.869 389.654 346.779 389.68 340.046C389.702 334.219 389.936 328.377 389.598 322.569C389.33 317.972 391.35 316.939 395.477 316.938C399.786 316.936 401.452 318.492 401.283 322.827C401.036 329.145 401.383 335.485 401.156 341.803C401.015 345.706 402.486 347.406 406.362 347.047C407.022 346.986 407.693 347.045 408.359 347.052C415.161 347.115 416.922 349.568 415.296 356.359C414.704 358.833 412.934 358.777 411.101 358.89C401.213 359.499 401.213 359.499 401.212 369.361C401.21 385.178 401.054 400.997 401.303 416.811C401.375 421.362 399.704 422.454 395.492 422.438C391.346 422.421 389.534 421.434 389.593 416.855C389.815 399.376 389.582 381.892 389.763 364.412C389.805 360.309 388.521 358.437 383.902 358.945Z" fill="#006600"/>
<path d="M91.3398 112.983C91.3413 124.474 91.3577 135.47 91.3367 146.466C91.3258 152.207 89.337 154.856 85.1584 154.828C81.3174 154.802 78.8348 151.62 78.7991 146.252C78.7103 132.924 78.7412 119.596 78.7053 106.268C78.7027 105.305 78.5491 104.342 78.4568 103.277C76.1367 103.319 75.0483 104.916 73.8226 106.138C61.2017 118.722 48.605 131.33 36.037 143.966C32.4014 147.621 28.8036 148.362 26.1249 145.824C23.0268 142.889 23.1375 139.101 26.8876 135.247C37.3374 124.507 47.9204 113.897 58.4423 103.227C61.3636 100.265 64.3085 97.3224 67.1396 94.2752C68.7828 92.5066 70.3209 91.7548 72.0193 94.0506C76.6409 100.298 82.789 102.614 90.5095 101.018C92.0252 104.907 91.037 108.752 91.3398 112.983Z" fill="#006702"/>
<path d="M518.933 407.954C518.924 410.946 518.922 413.44 518.894 415.934C518.83 421.802 514.654 424.414 509.049 422.11C506.562 421.088 507.102 418.827 507.094 416.959C507.028 400.83 507.054 384.7 507.046 368.57C507.044 363.416 507.028 358.261 507.007 353.106C506.994 349.958 507.04 346.869 511.488 347.005C514.997 347.112 519.37 345.936 518.807 352.036C518.755 352.597 519.23 353.208 519.592 354.129C522.985 351.847 525.932 349.451 529.35 347.742C532.731 346.052 534.94 346.473 536.448 350.112C537.322 352.22 539.139 353.912 539.45 356.922C532.634 358.53 527.198 362.241 523.081 368.006C520.037 372.269 518.713 376.899 518.742 382.021C518.789 390.499 518.865 398.978 518.933 407.954Z" fill="#006600"/>
<path d="M140.001 78.6248C147.485 78.6589 154.469 78.6736 161.452 78.7314C166.857 78.7761 169.796 81.0333 169.822 85.0854C169.85 89.4206 167.292 91.2158 161.696 91.4336C143.092 92.1577 124.488 91.7563 105.882 91.7718C102.477 91.7746 101.094 90.7502 101.299 87.1293C101.794 78.3679 101.658 78.4456 110.572 78.5543C120.214 78.6718 129.858 78.6084 140.001 78.6248Z" fill="#FBCD01"/>
<path d="M137.138 146.345C122.609 131.849 108.422 117.545 94.2038 103.273C92.8817 101.946 91.9265 100.809 93.7548 99.1651C96.0718 97.0813 98.3124 94.9128 100.694 92.6797C104.206 94.6362 106.663 97.5844 109.327 100.282C120.791 111.894 132.211 123.55 143.724 135.112C146.497 137.897 147.806 141.002 145.808 144.502C143.931 147.789 140.745 147.856 137.138 146.345Z" fill="#EA2882"/>
<path d="M125.513 53.4851C117.477 62.0937 109.533 70.2924 100.983 78.2635C98.0758 75.0276 95.7065 72.0664 92.7266 69.8536C93.0562 67.5757 94.8082 66.6515 96.0397 65.3996C108.883 52.3442 121.777 39.3389 134.645 26.3076C138.236 22.6705 141.831 22.0317 144.744 24.5776C147.502 26.9894 147.175 31.5222 143.684 35.1393C137.788 41.2474 131.742 47.2109 125.513 53.4851Z" fill="#0691DB"/>
<path d="M69.3683 84.9854C69.3654 87.1795 69.3654 88.9735 69.3654 90.7733C66.7332 92.2144 64.0325 91.2788 61.4391 91.2913C44.315 91.3737 27.1903 91.3447 10.0659 91.3307C3.22294 91.3252 0.884305 89.6973 0.902448 85.0533C0.918869 80.85 3.88789 78.8025 10.374 78.7796C28.1631 78.7167 45.9548 78.8722 63.7403 78.6039C68.4393 78.533 70.1679 80.0663 69.3683 84.9854Z" fill="#EE8516"/>
<path d="M486.306 133.856C484.629 140.644 480.607 144.253 475.428 144.023C470.72 143.813 466.393 139.957 465.749 135.395C464.869 129.171 467.988 124.538 473.69 123.6C480.807 122.429 485.17 125.831 486.306 133.856Z" fill="#474747"/>
</g>
</g>
<defs>
<clipPath id="clip0_16020_191819">
<rect width="697" height="425" fill="white"/>
</clipPath>
</defs>
</svg>
