<svg width="501" height="407" viewBox="0 0 501 407" fill="none" xmlns="http://www.w3.org/2000/svg">
<path d="M250.351 406.337C246.798 406.362 243.3 405.452 240.208 403.7C213.735 388.384 17.6658 265.448 10.2613 261.695C4.62621 259.065 0.778299 253.678 0.118085 247.494V75.0598C-0.0277279 68.6233 3.15426 62.566 8.53692 59.0336L9.95698 58.2222C28.9248 46.456 92.421 7.70897 102.463 2.1302C104.767 0.762742 107.392 0.027946 110.07 0.00012207C112.582 0.0285398 115.05 0.654383 117.272 1.8259C117.272 1.8259 206.127 59.7437 219.719 64.9167C229.255 69.2982 239.655 71.4819 250.149 71.3069C262.04 71.5555 273.789 68.688 284.229 62.9895C297.517 55.9907 382.416 2.1302 383.329 2.1302C385.469 0.837383 387.928 0.169776 390.429 0.202987C393.11 0.21611 395.738 0.951964 398.036 2.33306C409.6 8.72326 488.311 56.9036 491.658 59.0336C497.194 62.3736 500.55 68.3922 500.483 74.857V247.292C499.862 253.49 496.002 258.894 490.34 261.492C482.935 265.549 287.475 388.485 260.494 403.498C257.423 405.321 253.923 406.3 250.351 406.337Z" fill="url(#paint0_linear_16008_9349)"/>
<path d="M249.338 406.338L250.352 406.337C253.906 406.362 257.404 405.452 260.495 403.7C286.969 388.384 482.936 265.448 490.341 261.695C496.003 259.097 499.863 253.693 500.484 247.494V75.0598C500.516 72.1407 499.856 69.2555 498.556 66.6411L249.338 203.473V406.338Z" fill="url(#paint1_linear_16008_9349)"/>
<path d="M248.471 403.906L247.467 403.906C243.951 403.93 240.491 403.03 237.432 401.297C211.24 386.143 17.3612 264.517 10.0354 260.804C4.43391 258.234 0.614807 252.888 0.000584216 246.755V76.1574C-0.0317433 73.2695 0.621465 70.4149 1.90722 67.8284L248.471 203.202V403.906Z" fill="url(#paint2_linear_16008_9349)"/>
<path d="M132 143H152.428V241.31H187.654V260.712H132.088L132 143Z" fill="white"/>
<path d="M234.976 172.497C245.796 172.359 256.067 177.3 262.721 185.832V174.248H281.786V260.9H262.721V249.316C256.067 257.86 245.796 262.789 234.976 262.651C211.208 262.651 193.17 242.349 193.17 217.555C193.17 192.749 211.208 172.497 234.976 172.497ZM238.441 189.847C223.005 189.847 212.784 201.994 212.784 217.543C212.784 233.104 223.167 245.288 238.441 245.288C253.702 245.288 264.085 233.154 264.085 217.543C264.085 201.944 253.865 189.847 238.441 189.847Z" fill="white"/>
<path d="M296.61 245.839L342.044 191.549H297.286V174.236H366.662V189.497L321.391 243.575H367.688V260.887H296.598V245.839" fill="white"/>
<defs>
<linearGradient id="paint0_linear_16008_9349" x1="-0.190656" y1="3.71326" x2="495.579" y2="-0.126753" gradientUnits="userSpaceOnUse">
<stop offset="1e-07" stop-color="#FF9200"/>
<stop offset="0.337553" stop-color="#F36D00"/>
<stop offset="0.56729" stop-color="#F83C72"/>
<stop offset="0.78" stop-color="#FC1CBE"/>
<stop offset="0.93" stop-color="#FE08ED"/>
<stop offset="1" stop-color="#FF00FF"/>
</linearGradient>
<linearGradient id="paint1_linear_16008_9349" x1="139.086" y1="363.934" x2="644.547" y2="84.0644" gradientUnits="userSpaceOnUse">
<stop stop-color="#EE0A3F"/>
<stop offset="1" stop-color="#EE0A3F" stop-opacity="0"/>
</linearGradient>
<linearGradient id="paint2_linear_16008_9349" x1="188.275" y1="290.998" x2="-55.9744" y2="94.2415" gradientUnits="userSpaceOnUse">
<stop stop-color="#ED6600"/>
<stop offset="1" stop-color="#F98200"/>
</linearGradient>
</defs>
</svg>
