<svg width="512" height="512" viewBox="0 0 512 512" fill="none" xmlns="http://www.w3.org/2000/svg">
<g clip-path="url(#clip0_22_169)">
<path d="M305 513C236.979 513 168.958 513 100.39 512.632C99.179 511.858 98.5614 511.229 97.8434 511.078C76.3948 506.566 57.7205 496.501 41.5793 481.957C21.503 463.867 8.75565 441.345 2.97039 414.901C2.73843 413.841 1.67566 412.963 1 412C1 353.979 1 295.958 1.29139 237.309C16.0612 222.215 30.5284 207.739 45.0376 193.305C46.2926 192.057 47.8249 191.087 49.1426 190.422C47.7429 197.341 51.0761 201.917 55.1002 206.425C78.3919 232.518 101.612 258.677 124.802 284.861C131.505 292.429 134.993 301.609 134.402 311.482C133.219 331.25 131.044 350.958 129.31 370.694C127.794 387.939 126.034 405.17 124.937 422.442C124.273 432.893 131.813 438.067 141.692 434.683C143.102 434.2 144.468 433.582 145.835 432.983C177.47 419.122 209.084 405.21 240.747 391.413C251.655 386.66 262.729 386.63 273.708 391.279C305.208 404.616 336.634 418.127 368.228 431.234C372.791 433.128 378.12 433.177 382.985 434.4C381.643 436.065 380.458 437.457 379.17 438.747C354.454 463.505 329.726 488.251 305 513Z" fill="#222221"/>
<path d="M305.469 513C329.726 488.251 354.454 463.505 379.17 438.747C380.458 437.457 381.643 436.065 383.239 434.179C390.149 429.575 390.443 423.385 389.722 416.604C388.114 401.482 386.753 386.334 385.581 371.044C386.481 370.335 387.116 369.802 387.7 369.219C429.469 327.482 471.234 285.741 513 244C513 300.688 513 357.375 512.671 414.206C511.989 414.699 511.381 415.008 511.319 415.403C509.415 427.525 504.832 438.722 498.873 449.288C489.542 465.831 477.295 479.945 461.766 491.021C448.325 500.608 433.607 507.441 417.444 511.077C416.849 511.211 416.476 512.337 416 513C379.312 513 342.625 513 305.469 513Z" fill="#FED23E"/>
<path d="M49.2282 189.988C47.8247 191.087 46.2925 192.057 45.0375 193.305C30.5283 207.739 16.061 222.216 1.29124 236.84C0.999854 229.979 0.999853 222.958 1.22404 215.224C21.4969 194.494 41.5589 174.49 61.5915 154.457C112.735 103.312 163.865 52.1531 215 1C274.687 1 334.375 1 394.334 1.26895C394.098 2.19434 393.658 2.91667 393.076 3.49778C361.366 35.1713 329.643 66.833 297.649 98.2553C288.014 82.4744 278.154 67.2068 269.45 51.3064C262.652 38.8899 252.934 33.8001 241.595 49.0568C240.298 50.0509 239.295 50.9261 238.356 51.8649C201.601 88.5976 164.85 125.334 128.11 162.081C126.232 163.959 124.455 165.937 122.29 168.029C101.881 172.794 81.8263 177.455 61.7385 181.969C56.5156 183.143 52.0965 185.281 49.2282 189.988Z" fill="#E62082"/>
<path d="M297.923 98.4951C329.644 66.8322 361.366 35.1706 393.076 3.49701C393.658 2.9159 394.099 2.19356 394.803 1.26817C400.688 0.999225 406.376 0.999225 412.255 1.35493C413.112 2.13003 413.733 2.79874 414.453 2.93263C436.14 6.96571 455.012 16.896 471.508 31.175C485.141 42.9758 495.453 57.5007 502.864 74.048C470.68 106.223 438.772 138.193 406.458 170.167C386.268 165.856 366.479 161.565 346.702 157.22C337.363 155.168 329.423 150.208 324.339 142.434C314.991 128.142 306.671 113.179 297.923 98.4951Z" fill="#A9C944"/>
<path d="M214.531 1C163.864 52.1531 112.734 103.312 61.5913 154.457C41.5587 174.49 21.4967 194.494 1.22383 214.756C0.999643 177.312 0.999644 139.625 1.36709 101.714C2.29841 99.687 2.94462 97.9043 3.41377 96.0762C10.2131 69.5814 23.8954 47.4487 44.7679 29.6488C60.7302 16.0362 78.8889 7.21289 99.3544 2.91638C100.008 2.77914 100.456 1.66092 101 1C138.687 1 176.375 1 214.531 1Z" fill="#18A2DA"/>
<path d="M406.864 170.164C438.772 138.194 470.68 106.224 503.188 74.252C506.234 82.2363 508.656 90.2294 511.188 98.188C511.321 98.6082 512.375 98.7358 513 98.9996C513 147.021 513 195.041 513 243.531C471.234 285.74 429.469 327.481 387.7 369.218C387.116 369.802 386.481 370.334 385.464 370.605C383.198 351.608 381.416 332.889 379.45 314.189C378.197 302.27 381.336 291.75 389.128 282.729C405.668 263.579 422.326 244.531 438.935 225.441C445.709 217.655 452.559 209.934 459.231 202.062C467.179 192.684 464.042 183.327 452.078 180.368C451.271 180.169 450.444 180.052 449.633 179.868C435.376 176.636 421.12 173.399 406.864 170.164Z" fill="#E51A53"/>
<path d="M406.458 170.167C421.12 173.4 435.376 176.637 449.633 179.869C450.444 180.053 451.271 180.169 452.078 180.369C464.042 183.327 467.179 192.684 459.23 202.062C452.558 209.934 445.708 217.656 438.935 225.441C422.326 244.532 405.668 263.58 389.128 282.729C381.336 291.751 378.197 302.271 379.45 314.19C381.416 332.889 383.197 351.609 385.174 370.758C386.752 386.334 388.114 401.482 389.721 416.604C390.442 423.385 390.149 429.575 383.347 433.859C378.119 433.177 372.791 433.128 368.227 431.235C336.633 418.128 305.207 404.616 273.708 391.28C262.728 386.631 251.655 386.661 240.747 391.414C209.083 405.21 177.47 419.122 145.834 432.983C144.467 433.582 143.102 434.201 141.692 434.684C131.813 438.067 124.272 432.893 124.936 422.442C126.033 405.17 127.794 387.94 129.31 370.695C131.044 350.959 133.219 331.25 134.402 311.482C134.993 301.61 131.504 292.429 124.802 284.861C101.611 258.677 78.3916 232.519 55.0999 206.425C51.0758 201.917 47.7426 197.342 49.1424 190.422C52.0964 185.281 56.5154 183.143 61.7384 181.969C81.8261 177.455 101.881 172.794 122.726 168.028C137.269 164.732 151.07 161.748 164.786 158.416C175.625 155.783 184.054 149.481 189.716 139.892C206.699 111.124 223.534 82.2695 240.374 53.418C241.151 52.0875 241.415 50.4579 241.918 48.9677C252.934 33.8003 262.652 38.8901 269.449 51.3066C278.154 67.2069 288.014 82.4746 297.649 98.2554C306.671 113.179 314.991 128.143 324.338 142.435C329.423 150.209 337.363 155.169 346.701 157.221C366.479 161.566 386.268 165.857 406.458 170.167ZM218.876 320.814C231.994 335.687 248.468 340.383 267.515 336.326C277.981 334.097 287.282 329.529 294.018 319.891C294.917 318.939 295.917 318.063 296.7 317.024C303.454 308.049 303.916 297.614 303.076 287.095C302.7 282.393 299.18 279.674 294.435 279.718C290.308 279.756 286.183 280.517 282.065 281.022C272.506 282.194 262.931 284.488 253.403 284.299C243.689 284.107 234.035 281.41 224.332 279.955C212.885 278.239 208.95 281.384 208.625 292.92C208.334 303.253 210.882 312.715 218.876 320.814ZM214.92 222.504C209.832 222.457 204.557 221.517 199.693 222.536C186.492 225.302 179.069 234.386 176.759 249.119C175.894 254.642 178.077 258.843 182.077 259.353C188.48 260.17 191.619 257.892 192.468 251.814C193.721 242.847 199.555 237.316 207.464 237.598C215.072 237.87 220.698 243.723 221.627 252.332C222.237 257.987 225.163 260.787 230.145 260.482C234.979 260.185 237.664 256.815 237.582 251.145C237.395 238.128 229.032 227.252 214.92 222.504ZM332.863 239.774C332.097 238.489 331.4 237.155 330.552 235.925C323.194 225.246 309.889 220.48 297.075 223.9C284.773 227.183 275.484 238.406 274.665 250.976C274.286 256.802 276.935 260.644 281.736 261.234C286.551 261.825 289.66 258.562 290.95 252.885C291.724 249.479 293.142 245.809 295.393 243.243C299.202 238.902 304.598 237.894 310.063 239.886C316.322 242.168 319.382 246.92 319.816 253.616C320.207 259.674 323.27 261.887 329.973 261.506C333.342 261.315 336.351 257.627 335.915 253.023C335.515 248.791 334.115 244.654 332.863 239.774Z" fill="#FEFEFE"/>
<path d="M241.594 49.0566C241.415 50.4576 241.151 52.0872 240.374 53.4177C223.534 82.2692 206.699 111.124 189.716 139.891C184.054 149.481 175.625 155.782 164.786 158.415C151.07 161.748 137.269 164.732 123.067 167.868C124.455 165.937 126.232 163.959 128.11 162.081C164.85 125.334 201.601 88.5975 238.355 51.8648C239.295 50.926 240.298 50.0508 241.594 49.0566Z" fill="#242423"/>
<path d="M218.675 320.15C210.882 312.714 208.333 303.252 208.625 292.92C208.95 281.384 212.885 278.238 224.332 279.954C234.034 281.409 243.689 284.106 253.403 284.298C262.931 284.487 272.506 282.194 282.065 281.021C286.183 280.516 290.307 279.755 294.435 279.717C299.18 279.674 302.7 282.392 303.076 287.094C303.916 297.614 303.454 308.048 296.699 317.023C295.917 318.063 294.917 318.938 293.498 319.681C276.968 311.094 259.909 308.546 242.339 311.962C234.227 313.539 226.549 317.351 218.675 320.15Z" fill="#232322"/>
<path d="M218.775 320.482C226.549 317.352 234.227 313.54 242.339 311.963C259.909 308.547 276.968 311.095 293.191 319.799C287.282 329.53 277.981 334.097 267.515 336.326C248.468 340.383 231.994 335.688 218.775 320.482Z" fill="#EE88B5"/>
<path d="M215.312 222.6C229.032 227.253 237.395 238.128 237.582 251.145C237.664 256.815 234.979 260.186 230.145 260.482C225.163 260.787 222.236 257.988 221.627 252.332C220.698 243.723 215.072 237.871 207.463 237.599C199.555 237.316 193.721 242.847 192.468 251.814C191.619 257.892 188.48 260.17 182.077 259.354C178.077 258.844 175.894 254.642 176.759 249.119C179.069 234.386 186.492 225.303 199.693 222.537C204.557 221.518 209.832 222.458 215.312 222.6Z" fill="#242423"/>
<path d="M333.01 240.125C334.115 244.654 335.516 248.791 335.916 253.023C336.351 257.628 333.342 261.315 329.973 261.507C323.27 261.887 320.208 259.674 319.816 253.616C319.383 246.92 316.322 242.168 310.063 239.886C304.598 237.894 299.203 238.903 295.393 243.243C293.142 245.809 291.725 249.48 290.951 252.885C289.66 258.563 286.552 261.825 281.737 261.234C276.935 260.644 274.286 256.802 274.666 250.976C275.485 238.407 284.773 227.183 297.075 223.9C309.889 220.48 323.194 225.246 330.553 235.926C331.4 237.155 332.097 238.489 333.01 240.125Z" fill="#252423"/>
</g>
<defs>
<clipPath id="clip0_22_169">
<rect width="512" height="512" fill="white"/>
</clipPath>
</defs>
</svg>
