<svg width="398" height="398" viewBox="0 0 398 398" fill="none" xmlns="http://www.w3.org/2000/svg">
<g clip-path="url(#clip0_16008_9854)">
<path d="M245.947 218.612C246.441 218.499 246.935 218.385 248.057 218.494C252.112 221.047 255.477 220.374 259.109 218.958C264.31 216.932 267.547 218.941 266.525 224.259C264.972 232.333 263.291 240.764 259.534 247.925C255.642 255.34 249.446 261.628 243.836 268.041C234.409 278.818 221.404 283.727 208.028 285.72C187.524 288.774 168.539 283.922 152.225 270.097C143.488 262.694 137.212 253.731 132.972 243.339C130.342 236.895 132.33 234.36 139.156 233.975C146.213 233.577 153.271 233.217 160.328 232.825C161.156 232.779 161.986 232.679 162.801 232.53C171.351 230.965 179.883 229.291 188.453 227.845C193.693 226.96 199.005 226.501 204.25 225.643C205.151 225.496 205.88 224.301 206.689 223.589C207.259 223.455 207.83 223.321 209.18 223.366C221.279 222.359 232.599 221.194 243.91 219.938C244.629 219.858 245.27 219.071 245.947 218.612Z" fill="#3B14A3"/>
<path d="M206.314 223.493C205.88 224.3 205.151 225.496 204.25 225.643C199.004 226.501 193.693 226.96 188.453 227.844C179.883 229.291 171.351 230.965 162.801 232.53C161.985 232.679 161.155 232.779 160.327 232.824C153.271 233.217 146.212 233.577 139.156 233.975C132.329 234.36 130.342 236.895 132.971 243.339C137.212 253.731 143.488 262.694 152.224 270.097C168.539 283.922 187.523 288.774 208.027 285.72C221.404 283.727 234.409 278.818 243.836 268.041C249.445 261.628 255.642 255.34 259.533 247.925C263.291 240.764 264.972 232.332 266.524 224.259C267.547 218.941 264.309 216.932 259.109 218.958C255.476 220.374 252.112 221.047 248.438 218.517C253.107 217.59 258.002 216.564 262.944 216.223C267.29 215.924 269.363 218.71 268.738 224.059C266.457 243.589 258.012 259.949 242.684 272.41C209.623 299.29 160.394 291.869 137.62 256.551C134.575 251.83 132.187 246.623 130 241.429C127.926 236.505 129.976 233.177 135.159 232.499C158.746 229.415 182.345 226.422 206.314 223.493Z" fill="#2839A7"/>
<path d="M172.09 171.694C172.326 176.671 170.001 178.993 165.676 179.402C162.702 179.683 159.699 179.929 156.72 179.837C152.733 179.715 150.793 181.286 150.987 185.395C151.097 187.718 150.951 190.055 150.903 192.385C150.882 193.383 150.901 194.393 150.758 195.377C149.981 200.753 146.399 202.273 135.59 201.855C130.07 201.642 127.416 199.492 127.141 194.775C126.948 191.453 126.887 188.115 126.959 184.789C127.037 181.239 125.243 179.558 121.91 179.307C119.59 179.133 117.256 179.145 114.929 179.046C113.101 178.969 111.043 179.362 109.488 178.659C102.437 175.47 105.654 168.938 105.134 163.728C104.774 160.115 105.521 156.499 110.306 156.122C113.61 155.862 116.929 155.717 120.243 155.681C125.193 155.628 126.806 154.174 126.978 149.197C127.081 146.203 127.139 143.204 127.101 140.209C127.041 135.618 129.589 133.605 133.825 133.172C134.819 133.07 135.818 133.024 136.814 132.947C148.525 132.031 150.974 134.214 151.206 145.775C151.219 146.44 151.179 147.107 151.219 147.769C151.659 154.965 151.688 154.631 158.86 155.179C174.831 156.401 171.799 155.66 172.09 171.694ZM107.779 175.24C107.779 175.24 107.823 175.274 108.244 175.954C114.519 176.345 120.794 176.736 127.425 177.524C127.928 178.024 128.432 178.524 128.867 179.821C128.985 180.877 129.103 181.933 129.061 183.674C129.097 184.139 129.134 184.604 128.975 185.951C129.387 189.841 129.799 193.731 130.72 198.313C134.921 198.655 139.116 199.106 143.323 199.305C147.007 199.479 148.662 197.479 148.69 193.829C148.73 188.571 148.921 183.314 149.009 178.011C149.009 178.011 149.057 178.046 149.866 177.896C152.348 177.719 154.829 177.406 157.313 177.386C171.467 177.268 171.377 177.295 170.813 163.268C170.652 159.245 168.946 157.622 165.016 157.558C159.712 157.472 154.412 157.08 148.931 156.038C148.808 152.226 148.6 148.415 148.579 144.602C148.532 136.017 147.662 135.079 139.188 135.35C137.046 135.418 134.826 135.564 132.814 136.209C131.714 136.562 130.973 138.035 129.811 139.501C129.63 140.013 129.45 140.524 129.111 141.672C129.146 142.105 129.18 142.538 129.016 143.884C128.989 147.904 128.961 151.924 128.726 156.165C128.726 156.165 128.689 156.467 127.942 156.781C123.067 157.056 118.176 157.174 113.326 157.685C111.397 157.888 109.56 158.964 107.684 159.731C107.684 159.731 107.773 159.728 107.43 160.022C107.268 160.301 107.241 160.593 107.122 161.812C107.159 165.861 107.196 169.91 107.183 174.465C107.395 174.711 107.608 174.957 107.779 175.24Z" fill="#24BAEF"/>
<path d="M285.373 167.803C283.501 174.325 282.455 180.574 276.605 184.972C267.906 191.511 255.366 191.439 247.793 183.924C238.889 175.088 238.15 163.62 245.228 154.25C251.314 146.193 259.664 143.475 268.568 145.664C276.662 147.654 282.805 153.427 284.178 162.634C284.42 164.258 285.002 165.831 285.373 167.803ZM243.407 161.457C243.205 162.432 242.966 163.402 242.806 164.384C241.447 172.69 245.885 181.481 253.288 185.175C262.098 189.571 271.404 187.954 277.826 180.909C283.704 174.462 284.762 164.809 280.319 157.354C276.133 150.332 269.922 146.688 261.722 147.186C252.879 147.723 247.02 152.602 243.407 161.457Z" fill="#29B7EF"/>
<path d="M245.538 218.509C245.27 219.071 244.629 219.858 243.91 219.938C232.599 221.194 221.278 222.359 209.621 223.382C221.231 221.615 233.18 220.01 245.538 218.509Z" fill="#2839A7"/>
<path d="M128.69 156.467C128.69 156.467 128.726 156.165 129.211 156.014C133.68 155.124 132.874 151.946 132.942 149.311C133.014 146.488 132.956 143.611 129.216 142.971C129.181 142.538 129.146 142.105 129.368 141.244C129.773 140.212 129.922 139.608 130.071 139.003C130.974 138.035 131.714 136.562 132.814 136.209C134.827 135.564 137.046 135.418 139.188 135.35C147.662 135.079 148.532 136.017 148.58 144.602C148.6 148.415 148.808 152.226 149.208 156.746C153.635 158.03 157.848 158.342 161.91 159.296C164.001 159.788 167.341 161.221 167.524 162.578C168.867 172.534 168.413 176.146 157.813 175.976C156.157 175.949 154.432 175.502 152.869 175.844C151.503 176.143 150.321 177.28 149.058 178.046C149.058 178.046 149.009 178.011 148.72 178.171C147.83 182.354 146.713 186.383 146.766 190.396C146.823 194.745 145.457 196.983 141.102 196.72C141.191 196.11 141.228 195.866 141.523 195.495C142.28 194.037 142.777 192.706 143.274 191.376C142.507 191.591 141.74 191.806 140.575 192.017C139.117 192.011 138.057 192.009 136.793 191.742C134.116 189.341 131.643 187.205 129.171 185.069C129.134 184.604 129.098 184.139 129.372 183.166C129.434 181.447 129.185 180.235 128.935 179.024C128.432 178.524 127.929 178.024 127.112 177.074C125.757 176.295 124.725 175.721 123.672 175.679C118.392 175.467 113.107 175.395 107.823 175.274C107.823 175.274 107.779 175.24 107.734 175.001C107.575 174.473 107.424 174.206 107.234 173.96C107.197 169.911 107.16 165.861 107.338 161.174C107.674 160.279 107.747 160.01 107.774 159.729C107.774 159.729 107.684 159.731 108.125 159.732C113.269 159.765 117.973 159.796 122.676 159.833C125.323 159.854 128.111 160.137 128.69 156.467Z" fill="#3A16A3"/>
<path d="M149.461 177.971C150.32 177.28 151.502 176.143 152.868 175.844C154.431 175.502 156.156 175.949 157.812 175.976C168.413 176.146 168.866 172.534 167.523 162.578C167.34 161.221 164.001 159.788 161.909 159.296C157.847 158.342 153.634 158.03 149.297 157.136C154.412 157.08 159.711 157.472 165.016 157.558C168.946 157.622 170.651 159.245 170.813 163.268C171.377 177.295 171.466 177.268 157.313 177.386C154.829 177.406 152.348 177.719 149.461 177.971Z" fill="#2B2BA3"/>
<path d="M141.049 197.086C145.458 196.983 146.824 194.745 146.766 190.396C146.714 186.383 147.83 182.354 148.741 178.194C148.922 183.314 148.731 188.571 148.691 193.829C148.663 197.479 147.008 199.479 143.324 199.305C139.117 199.106 134.922 198.655 130.678 197.803C130.772 197.18 130.909 197.067 131.459 196.974C134.93 197.025 137.99 197.056 141.049 197.086Z" fill="#2B2BA3"/>
<path d="M129.116 143.427C132.956 143.611 133.014 146.488 132.941 149.311C132.874 151.946 133.68 155.124 129.315 155.903C128.962 151.924 128.989 147.904 129.116 143.427Z" fill="#3223A2"/>
<path d="M129.072 185.51C131.643 187.205 134.115 189.341 136.692 191.999C135.138 192.521 133.481 192.521 131.34 192.521C131.257 193.778 131.151 195.366 131.045 196.954C130.908 197.067 130.771 197.18 130.422 197.457C129.798 193.731 129.387 189.841 129.072 185.51Z" fill="#2B2BA3"/>
<path d="M128.316 156.624C128.111 160.137 125.323 159.854 122.675 159.833C117.972 159.796 113.269 159.765 108.123 159.687C109.56 158.964 111.397 157.888 113.326 157.685C118.176 157.174 123.067 157.057 128.316 156.624Z" fill="#2B2BA3"/>
<path d="M108.033 175.614C113.106 175.395 118.392 175.467 123.672 175.679C124.725 175.721 125.757 176.295 126.934 176.876C120.794 176.736 114.519 176.345 108.033 175.614Z" fill="#2B2BA3"/>
<path d="M128.9 179.423C129.184 180.235 129.433 181.447 129.451 182.824C129.102 181.933 128.984 180.877 128.9 179.423Z" fill="#2B2BA3"/>
<path d="M129.942 139.252C129.922 139.608 129.773 140.212 129.447 140.926C129.451 140.524 129.631 140.013 129.942 139.252Z" fill="#3223A2"/>
<path d="M107.209 174.212C107.424 174.206 107.576 174.473 107.756 174.982C107.609 174.957 107.396 174.711 107.209 174.212Z" fill="#2B2BA3"/>
<path d="M107.601 159.875C107.746 160.01 107.673 160.279 107.45 160.716C107.24 160.593 107.268 160.301 107.601 159.875Z" fill="#2B2BA3"/>
<path d="M243.548 161.069C247.021 152.602 252.879 147.723 261.723 147.186C269.922 146.688 276.133 150.332 280.319 157.354C284.763 164.809 283.705 174.462 277.826 180.909C271.405 187.954 262.099 189.572 253.289 185.175C245.886 181.481 241.447 172.69 242.806 164.384C242.967 163.402 243.205 162.433 243.548 161.069Z" fill="#371AA3"/>
<path d="M131.459 196.974C131.152 195.366 131.258 193.778 131.342 192.521C133.483 192.521 135.14 192.521 136.897 192.264C138.058 192.009 139.118 192.011 140.595 192.384C141.096 193.71 141.18 194.666 141.265 195.623C141.228 195.866 141.192 196.11 141.102 196.72C137.99 197.056 134.93 197.025 131.459 196.974Z" fill="#4310A2"/>
<path d="M141.523 195.495C141.18 194.666 141.096 193.71 140.992 192.387C141.74 191.805 142.507 191.591 143.274 191.376C142.777 192.706 142.28 194.037 141.523 195.495Z" fill="#2B2BA3"/>
<path d="M158.538 59.9171C158.647 59.7792 158.756 59.6413 158.965 59.289C159.065 59.0745 159.14 59.0234 159.386 58.86C160.053 57.823 160.473 56.9494 161.013 55.8693C161.132 55.6628 161.115 55.1861 161.115 55.1861C161.115 55.1861 161.245 55.184 161.514 54.964C162.832 52.8405 163.881 50.937 165.063 48.9004C165.197 48.7673 165.283 48.4005 165.524 48.1708C167.532 44.6441 169.301 41.3472 171.169 37.8987C171.269 37.7472 171.293 37.3862 171.565 37.2163C172.742 35.3542 173.647 33.662 174.719 31.7434C174.947 31.3393 175.008 31.1617 175.317 30.7819C179.452 23.4226 183.339 16.2657 187.227 9.10869C187.227 9.10869 187.156 9.12583 187.46 9.01083C188.607 7.66858 189.483 6.46196 190.29 5.2107C194.936 -1.99701 203.766 -1.5682 208.479 6.25705C214.036 15.4844 219.397 24.8299 224.843 34.1241C224.843 34.1241 225 34.0093 224.941 34.3509C225.119 34.9873 225.355 35.2821 225.59 35.5768C225.798 35.9938 226.006 36.4107 226.372 37.1787C226.53 37.5298 226.856 37.7626 226.856 37.7626C226.856 37.7626 226.866 38.0026 226.936 38.3383C227.31 39.055 227.614 39.4359 227.912 39.9084C227.906 40 228.063 40.0939 228.069 40.314C228.406 40.9755 228.737 41.4169 229.067 41.8583C229.153 42.0921 229.239 42.3259 229.567 43.1669C234.878 52.7557 239.915 61.7544 245.026 70.7111C247.195 74.5124 250.669 76.8822 254.93 76.0403C261.085 74.8244 267.061 72.709 273.657 70.9184C274.882 70.6376 275.564 70.4157 276.508 70.2218C277.408 69.9283 278.048 69.6067 278.922 69.3285C279.489 69.3558 279.784 69.2436 280.465 69.0438C290.822 66.199 300.756 63.3457 310.969 60.5159C311.773 60.3727 312.297 60.206 313.135 60.0761C318.746 58.6691 323.975 56.7224 329.369 55.9824C332.301 55.5802 335.964 56.5139 338.504 58.1087C343.162 61.0336 342.868 65.8486 341.52 70.6639C335.375 92.6188 329.273 114.586 323.175 136.554C320.305 146.893 321.637 149.949 331.004 155.189C337.833 159.009 344.573 162.987 351.421 166.772C360.576 171.833 369.796 176.776 378.989 181.77C379.114 181.888 379.238 182.006 379.777 182.484C384.368 185.265 388.595 187.604 392.708 190.129C396.93 192.72 398.97 197.899 396.797 202.217C395.474 204.845 393.106 207.415 390.557 208.886C370.081 220.702 349.454 232.255 328.865 243.876C322.615 247.402 320.634 251.448 322.458 258.348C325.73 270.733 329.237 283.055 332.657 295.401C335.724 306.47 338.949 317.498 341.837 328.614C344.169 337.587 337.952 343.87 329.006 341.856C326.572 341.308 324.162 340.64 321.756 339.974C300.574 334.119 279.397 328.244 258.214 322.393C253.299 321.035 248.549 321.517 245.793 326.14C240.181 335.551 235.061 345.255 229.738 354.839C229.583 354.967 229.429 355.096 229.08 355.5C228.886 355.775 228.825 355.587 228.825 355.587C228.739 355.921 228.653 356.256 228.192 357.232C227.536 358.519 227.256 359.163 226.975 359.807C226.975 359.807 226.831 359.951 226.581 360.214C225.82 361.603 225.308 362.73 224.796 363.857C224.796 363.857 224.986 363.956 224.622 364.078C219.233 372.929 214.118 381.607 209.217 390.404C206.147 395.915 201.989 398.872 195.14 397.292C194.563 397.059 194.321 396.996 193.955 396.744C193.28 396.308 192.729 396.062 192.178 395.816C192.073 395.672 191.968 395.528 191.572 394.917C189.915 392.572 188.548 390.692 187.182 388.812C187.182 388.812 187.158 388.882 187.157 388.509C185.16 384.695 183.163 381.254 181.095 377.581C181.024 377.35 180.707 376.986 180.692 376.688C180.149 375.555 179.622 374.72 179.019 373.577C178.823 373.096 178.703 372.922 178.51 372.448C177.323 370.43 176.208 368.713 175.007 366.734C174.813 366.324 174.706 366.175 174.556 365.696C173.426 363.803 172.339 362.241 171.252 360.679C171.252 360.679 171.205 360.288 171.095 359.752C167.743 353.774 164.5 348.332 161.257 342.89C161.257 342.89 161.232 342.803 161.159 342.464C160.84 341.734 160.593 341.343 160.338 340.707C159.948 339.949 159.567 339.436 159.205 338.881C159.225 338.838 159.143 338.793 159.08 338.452C157.757 336.062 156.498 334.014 155.238 331.966C155.043 331.428 154.849 330.89 154.388 329.763C153.145 327.983 152.167 326.791 151.19 325.6C151.117 325.34 150.971 325.131 150.44 324.567C145.145 319.913 140.118 322.275 134.723 324.119C133.918 324.416 133.487 324.655 133.055 324.895C132.217 325.034 131.379 325.174 129.901 325.415C128.457 325.848 127.653 326.179 126.849 326.511C126.332 326.609 125.815 326.707 124.917 326.84C124.536 326.876 124.136 326.853 124.136 326.853L124.021 327.176C123.847 327.189 123.674 327.201 122.951 327.274C121.273 327.757 120.146 328.178 119.019 328.599C119.019 328.599 118.785 328.592 118.422 328.631C117.684 328.797 117.309 328.926 116.633 329.028C110.12 330.868 103.908 332.734 97.6962 334.6C97.6962 334.6 97.7628 334.707 97.5111 334.622C96.8745 334.666 96.4897 334.796 95.837 334.88C94.432 335.171 93.2949 335.51 91.8182 335.929C91.274 336.12 91.0695 336.231 90.6121 336.314C89.6201 336.586 88.881 336.886 88.1418 337.186C87.9029 337.214 87.664 337.242 86.7232 337.341C81.7262 338.543 77.4082 339.594 73.1405 340.82C63.1924 343.678 61.071 343.012 55.1769 334.905C55.1695 333.846 55.1622 332.787 55.2498 331.166C55.4817 330.316 55.5087 330.018 55.612 329.387C56.6191 325.699 57.44 322.334 58.2609 318.968C58.4641 318.527 58.6674 318.085 59.0701 316.979C59.8198 314.233 60.3699 312.15 61.0601 309.73C66.0155 292.082 70.8989 274.792 75.6085 257.454C77.1956 251.612 75.58 247.893 70.3425 244.794C64.1865 241.152 57.8966 237.737 51.6742 234.207C36.4733 225.583 21.2058 217.074 6.11281 208.265C-0.668819 204.307 -1.8222 196.253 3.43036 191.38C5.22483 189.715 7.5753 188.621 9.74289 187.392C29.5715 176.145 49.4356 164.96 69.2444 153.679C75.7784 149.958 77.2889 146.68 75.37 139.667C69.9272 119.776 64.3011 99.9346 58.7472 80.0737C58.7307 79.8889 58.7142 79.7041 58.5254 78.917C57.367 74.995 56.381 71.6754 55.3895 68.2354C55.384 68.115 55.1579 68.0311 55.1579 68.0311C55.1843 66.6558 55.2107 65.2804 55.4563 63.2681C58.2542 57.5473 62.3958 55.0613 68.3311 55.2221C68.5695 55.2836 69.0537 55.1945 69.0537 55.1945C69.0537 55.1945 69.1931 55.3649 69.4909 55.5842C71.1307 56.1666 72.4728 56.5296 74.1172 57.0358C74.8637 57.2338 75.3078 57.2887 76.0373 57.5353C81.22 59.0403 86.1174 60.3537 91.3805 61.829C92.009 62.0359 92.2719 62.0808 92.6973 62.2951C94.2253 62.6629 95.5908 62.8613 96.9563 63.0596C97.2378 63.2406 97.5445 63.3527 98.3862 63.6352C102.91 64.9369 106.923 65.9995 111.162 67.172C111.386 67.282 111.878 67.3706 111.878 67.3706C111.878 67.3706 112.372 67.2918 112.631 67.5331C115.923 68.539 118.956 69.3038 121.988 70.0686C122.618 70.2961 123.249 70.5237 124.55 70.9891C126.413 71.5035 127.606 71.7801 129.13 72.2402C129.95 72.5277 130.439 72.6317 131.262 72.8943C134.905 73.9917 138.2 75.5916 141.531 75.6694C144.431 75.7371 147.372 74.0867 150.295 73.1954C150.564 73.1221 150.788 72.9786 151.367 72.4345C152.811 70.4243 153.855 68.7445 155.028 66.8455C155.189 66.4589 155.218 66.2914 155.487 65.917C156.663 63.7792 157.601 61.8482 158.538 59.9171ZM205.941 223.397C182.346 226.422 158.747 229.415 135.16 232.499C129.977 233.177 127.927 236.505 130 241.429C132.188 246.623 134.576 251.83 137.62 256.551C160.395 291.869 209.624 299.29 242.685 272.41C258.013 259.949 266.458 243.589 268.739 224.059C269.364 218.71 267.291 215.924 262.945 216.223C258.003 216.564 253.108 217.59 247.429 218.272C246.935 218.385 246.442 218.499 245.13 218.405C233.181 220.01 221.232 221.615 208.4 223.187C207.83 223.321 207.26 223.455 205.941 223.397ZM172.098 171.236C171.799 155.66 174.831 156.401 158.86 155.179C151.688 154.631 151.659 154.965 151.219 147.77C151.179 147.107 151.219 146.44 151.206 145.776C150.974 134.214 148.525 132.031 136.814 132.947C135.818 133.024 134.819 133.07 133.825 133.172C129.589 133.605 127.041 135.618 127.101 140.209C127.139 143.204 127.081 146.203 126.978 149.197C126.806 154.174 125.193 155.628 120.243 155.681C116.929 155.717 113.61 155.862 110.306 156.122C105.521 156.499 104.774 160.115 105.134 163.728C105.654 168.938 102.437 175.47 109.488 178.659C111.043 179.362 113.101 178.969 114.929 179.047C117.256 179.145 119.59 179.133 121.91 179.307C125.243 179.559 127.037 181.239 126.959 184.789C126.887 188.115 126.948 191.453 127.141 194.775C127.416 199.492 130.07 201.642 135.59 201.855C146.399 202.273 149.981 200.753 150.758 195.377C150.901 194.393 150.882 193.383 150.903 192.385C150.951 190.055 151.097 187.718 150.987 185.395C150.793 181.286 152.733 179.715 156.72 179.837C159.699 179.929 162.702 179.683 165.676 179.402C170.001 178.993 172.326 176.671 172.098 171.236ZM285.427 167.428C285.002 165.831 284.42 164.258 284.178 162.634C282.805 153.427 276.661 147.654 268.568 145.664C259.664 143.475 251.314 146.193 245.228 154.25C238.15 163.62 238.889 175.088 247.793 183.924C255.366 191.439 267.905 191.511 276.605 184.972C282.455 180.574 283.5 174.325 285.427 167.428Z" fill="#05DBF3"/>
</g>
<defs>
<clipPath id="clip0_16008_9854">
<rect width="398" height="398" fill="white"/>
</clipPath>
</defs>
</svg>
