<svg width="178" height="90" viewBox="0 0 178 90" fill="none" xmlns="http://www.w3.org/2000/svg">
<path d="M38.6854 32.1111C37.9962 34.8003 37.5113 37.5379 37.2347 40.3004C36.7898 46.4569 37.8923 50.9097 40.5229 53.9686C40.8173 54.3247 41.1479 54.6491 41.5094 54.9366L64.7206 53.8524C65.0881 53.4846 65.3976 53.1748 65.7651 52.7489C68.9954 49.0899 71.568 43.5335 73.5022 35.9056L80.3495 8.12391H67.6994L60.6974 35.712C58.6277 44.2111 56.5387 45.9342 53.9661 45.9342C51.3935 45.9342 49.7494 44.9468 50.0976 39.9519C50.2136 38.4224 50.9486 34.8215 50.9486 34.8215L57.6412 8.06583H44.6623L38.6854 32.1111Z" fill="#EB2837"/>
<path d="M84.9329 52.807L87.5635 42.1977H90.9098C96.2698 42.3893 101.542 40.7961 105.9 37.6674C107.422 36.5229 108.731 35.1207 109.769 33.5243L105.243 51.839L134.489 50.4257L135.785 45.2953H119.75L121.684 38.1514H136.384L139.267 25.9545H124.566L125.978 20.282H141.975L145.069 8.06581H116.055L113.212 19.1785C113.127 17.6466 112.724 16.1492 112.028 14.7824C111.332 13.4155 110.358 12.2092 109.169 11.2409C105.917 8.96017 101.993 7.84175 98.0279 8.06581H83.1727L71.8379 53.4265L84.9329 52.807ZM93.0762 19.7206H95.7648C100.117 19.7206 100.426 22.1019 100.291 23.9411C99.9815 28.3939 97.4283 30.601 92.7667 30.601H90.4456L93.0762 19.7206Z" fill="#EB2837"/>
<path d="M150.292 49.8062L152.381 41.4426H154.74L156.675 49.4964L169.712 48.8769L166.946 38.9839C170.191 37.4034 172.936 34.9559 174.878 31.9118C176.82 28.8676 177.884 25.3453 177.952 21.7341C178.571 12.8865 173.174 8.06583 162.71 8.06583H147.777L137.332 50.3676L150.292 49.8062ZM157.758 19.7206H160.543C164.837 19.7206 165.263 21.6566 165.127 23.5926C164.837 27.6776 162.265 29.8072 157.661 29.8072H155.301L157.758 19.7206Z" fill="#EB2837"/>
<path d="M35.3004 41.5781C35.7453 35.7701 34.1979 32.3627 29.8651 29.3038L26.19 26.5741C25.7064 26.2062 25.2035 25.8384 24.72 25.5286C22.5149 23.9411 21.7219 23.3216 21.8379 22.4116C21.9733 20.766 23.2112 19.7787 25.1455 19.7206C28.5111 19.5463 31.8187 24.4251 31.8187 24.4251L40.6197 15.8873C40.6197 15.8873 35.8614 7.21396 26.4995 7.21396C21.9879 7.23325 17.6445 8.93074 14.3136 11.9765C10.9736 14.9689 8.89849 19.1228 8.51079 23.5926C8.17587 26.0866 8.54133 28.6246 9.56621 30.9224C10.5911 33.2202 12.2349 35.1871 14.3136 36.6026L17.7953 39.1C18.1488 39.3836 18.5168 39.6485 18.8978 39.8938C21.1609 41.4813 21.8379 42.0815 21.7799 43.1269C21.5865 45.6244 19.2653 45.9922 17.9113 45.9922C12.8436 45.9922 9.78741 39.6421 9.78741 39.6421L0 47.8702C1.85151 51.4885 4.75014 54.464 8.31736 56.408L26.809 55.6142C29.2482 54.131 31.2938 52.0806 32.7721 49.637C34.2504 47.1934 35.1177 44.4289 35.3004 41.5781Z" fill="#EB2837"/>
<path d="M76.2486 70.3279L77.9701 63.3582H68.8404L69.8849 59.099H80.1559L81.2391 54.9366L63.3664 55.8078L56.6738 82.1762H74.4111L76.1326 75.1485H65.9003L67.1382 70.3279H76.2486Z" fill="#EB2837"/>
<path d="M122.749 53.0006L108.01 53.6782C105.691 55.643 103.806 58.069 102.474 60.8019C101.142 63.5348 100.392 66.5151 100.273 69.5535C99.8084 77.7041 103.6 82.7183 110.253 82.7183C117.352 82.7183 125.186 75.6325 125.979 63.8616C126.424 58.9828 125.205 55.2464 122.749 53.0006ZM118.416 64.3456C117.913 71.2959 113.89 75.5745 111.182 75.5745C108.919 75.5745 107.758 73.1351 108.01 69.1082C108.551 62.0805 112.594 57.8793 115.283 57.8793C117.488 57.8793 118.726 60.2606 118.416 64.3456Z" fill="#EB2837"/>
<path d="M149.306 51.7422L140.022 68.6048L139.035 52.2455L130.95 52.6134L123.619 82.1762H130.524L133.832 67.6368L135.244 82.1762H138.3L146.618 67.7723L142.459 82.1762H149.558L157.295 51.3356L149.306 51.7422Z" fill="#EB2837"/>
<path d="M152.189 82.1762H170.314L171.958 74.9743H161.667L163.079 69.4179H172.383L174.085 62.216H164.801L165.903 57.5502H176.232L177.954 50.3676L159.965 51.2195L152.189 82.1762Z" fill="#EB2837"/>
<path d="M95.5324 64.7715L92.2248 62.3902C90.7548 61.3641 90.1358 60.8608 90.2906 60.067C90.3449 59.4402 90.6428 58.8598 91.1203 58.4507C91.5978 58.0415 92.2167 57.8364 92.8438 57.8793C95.2423 57.8793 97.1379 60.6865 97.1379 60.6865L102.148 55.7303C101.774 55.0922 101.326 54.5008 100.813 53.9686L84.952 54.7043C83.5302 56.4141 82.6781 58.5261 82.5148 60.7446C82.3096 62.2889 82.5373 63.8599 83.1727 65.2821C83.808 66.7043 84.8258 67.9218 86.1126 68.7984C86.1126 68.7984 88.8205 70.7344 89.0526 70.9474C90.5227 71.9734 91.1417 72.4575 90.9869 73.3867C90.8515 74.7807 89.807 75.6325 88.0468 75.6325C84.6812 75.6325 82.7082 71.7605 82.7082 71.7605L77.0215 76.4456C77.985 78.3078 79.4341 79.8741 81.2152 80.9785C82.9963 82.0829 85.0428 82.6841 87.1377 82.7183C90.0468 82.8259 92.8838 81.7975 95.0494 79.8504C97.2149 77.9032 98.5395 75.1898 98.7433 72.2832C99.0369 70.8528 98.8867 69.3668 98.3128 68.0242C97.7389 66.6817 96.7688 65.5467 95.5324 64.7715Z" fill="#EB2837"/>
<path d="M54.5853 56.2337C52.651 61.2286 49.6916 68.1982 49.5755 68.5661C49.7496 67.0947 50.1171 60.9963 50.3686 56.4079L41.7997 56.8339L36.3451 68.4499L37.7571 57.1049L30.1748 57.5502L27.4668 82.2924H36.4031L43.7534 64.7134L41.9738 82.2924H51.1036L61.8968 55.982L54.5853 56.2337Z" fill="#EB2837"/>
<path d="M12.979 58.1891L0 82.1762H8.08525L9.67135 78.8463H18.1821L17.9887 82.273H25.8805L25.455 57.5502L12.979 58.1891ZM18.4723 71.1023H13.5399L19.1106 59.0216L18.4723 71.1023Z" fill="#EB2837"/>
</svg>
