<?xml version="1.0" encoding="utf-8"?><svg xmlns="http://www.w3.org/2000/svg" xmlns:xlink="http://www.w3.org/1999/xlink" viewBox="0 0 92.02 39.03" fill="#EB2131"><path d="M20,12.86a28.44,28.44,0,0,0-.75,4.23c-.23,3.18.34,5.48,1.7,7.06a3.44,3.44,0,0,0,.51.5l12-.56c.19-.19.35-.35.54-.57,1.67-1.89,3-4.76,4-8.7L41.54.47H35L31.38,14.72C30.31,19.11,29.23,20,27.9,20s-2.18-.51-2-3.09c.06-.79.44-2.65.44-2.65L29.8.44H23.09Z"/><path d="M43.91,23.55l1.36-5.48H47a12.53,12.53,0,0,0,7.75-2.34,8.43,8.43,0,0,0,2-2.14l-2.34,9.46,15.12-.73.67-2.65H61.91l1-3.69h7.6L72,9.68h-7.6l.73-2.93H73.4L75,.44H60L58.53,6.18a5.69,5.69,0,0,0-2.09-4.1A9.14,9.14,0,0,0,50.68.44H43L37.14,23.87ZM48.12,6.46h1.39c2.25,0,2.41,1.23,2.34,2.18-.16,2.3-1.48,3.44-3.89,3.44h-1.2Z"/><path d="M77.7,22l1.08-4.32H80l1,4.16,6.74-.32-1.43-5.11A10.12,10.12,0,0,0,92,7.5C92.32,2.93,89.53.44,84.12.44H76.4L71,22.29ZM81.56,6.46H83c2.22,0,2.44,1,2.37,2-.15,2.11-1.48,3.21-3.86,3.21H80.29Z"/><path d="M18.25,17.75c.23-3-.57-4.76-2.81-6.34L13.54,10c-.25-.19-.51-.38-.76-.54-1.14-.82-1.55-1.14-1.49-1.61C11.36,7,12,6.49,13,6.46c1.74-.09,3.45,2.43,3.45,2.43L21,4.48S18.54,0,13.7,0A9.4,9.4,0,0,0,7.4,2.46a9.11,9.11,0,0,0-3,6,7,7,0,0,0,3,6.72l1.8,1.29a6.75,6.75,0,0,0,.57.41c1.17.82,1.52,1.13,1.49,1.67-.1,1.29-1.3,1.48-2,1.48-2.62,0-4.2-3.28-4.2-3.28L0,21a10.44,10.44,0,0,0,4.3,4.41L13.86,25A9.17,9.17,0,0,0,18.25,17.75Z"/><path d="M39.42,32.6,40.31,29H35.59l.54-2.2h5.31L42,24.65l-9.24.45L29.3,38.72h9.17l.89-3.63H34.07l.64-2.49Z"/><path d="M63.46,23.65,55.84,24a11.33,11.33,0,0,0-4,8.2C51.6,36.41,53.56,39,57,39c3.67,0,7.72-3.66,8.13-9.74C65.36,26.74,64.73,24.81,63.46,23.65Zm-2.24,5.86c-.26,3.59-2.34,5.8-3.74,5.8-1.17,0-1.77-1.26-1.64-3.34.28-3.63,2.37-5.8,3.76-5.8C60.74,26.17,61.38,27.4,61.22,29.51Z"/><path d="M77.19,23l-4.8,8.71-.51-8.45-4.18.19L63.91,38.72h3.57l1.71-7.51.73,7.51H71.5l4.3-7.44-2.15,7.44h3.67l4-15.93Z"/><path d="M78.68,38.72h9.37L88.9,35H83.58l.73-2.87h4.81L90,28.41H85.2L85.77,26h5.34L92,22.29l-9.3.44Z"/><path d="M49.39,29.73,47.68,28.5c-.76-.53-1.08-.79-1-1.2A1.24,1.24,0,0,1,48,26.17c1.24,0,2.22,1.45,2.22,1.45l2.59-2.56a4.82,4.82,0,0,0-.69-.91l-8.2.38a5.51,5.51,0,0,0-1.26,3.12,4.34,4.34,0,0,0,1.86,4.16s1.4,1,1.52,1.11c.76.53,1.08.78,1,1.26-.07.72-.61,1.16-1.52,1.16-1.74,0-2.76-2-2.76-2l-2.94,2.42A6,6,0,0,0,45.05,39a5.8,5.8,0,0,0,6-5.39A3.7,3.7,0,0,0,49.39,29.73Z"/><path d="M28.22,25.32c-1,2.58-2.53,6.18-2.59,6.37.09-.76.28-3.91.41-6.28l-4.43.22-2.82,6,.73-5.86L15.6,26,14.2,38.78h4.62l3.8-9.08-.92,9.08h4.72L32,25.19Z"/><path d="M6.71,26.33,0,38.72H4.18L5,37H9.4l-.1,1.77h4.08L13.16,26ZM9.55,33H7l2.88-6.24Z"/></svg>
