<svg width="44" height="43" viewBox="0 0 44 43" fill="none" xmlns="http://www.w3.org/2000/svg">
<path fill-rule="evenodd" clip-rule="evenodd" d="M29.6182 15.5072C30.1088 15.953 30.4011 16.529 30.6955 17.1029C31.3042 18.2791 31.9108 19.4552 32.5152 20.6314L34.3072 24.113L35.9584 27.3066L36.2784 27.921L39.2566 33.7706C35.824 38.7029 30.3648 42.1162 24.0843 42.8053C23.3106 42.8906 22.527 42.9333 21.7334 42.9333C10.0214 42.9333 0.513091 33.4954 0.400024 21.809H3.73869C3.84962 31.648 11.8646 39.5946 21.7334 39.5946C26.975 39.5946 31.696 37.3546 34.9835 33.7749L33.823 31.5008L33.2683 30.4192H33.279L28.1696 20.3392L25.8294 24.736L25.3494 25.6405L23.9968 28.1856C23.9613 28.2168 23.93 28.2609 23.903 28.3178C23.568 28.9792 23.2139 29.6298 22.8747 30.289C22.7808 30.4746 22.6742 30.5728 22.4416 30.5706C21.2512 30.5557 20.0587 30.5642 18.8683 30.5642H18.527C18.7083 30.2101 18.864 29.9093 19.0219 29.6106C19.7373 28.2496 20.4555 26.8892 21.1766 25.5296C21.9303 24.1073 22.6862 22.6851 23.4443 21.2629C24.255 19.7376 25.0507 18.2037 25.8699 16.6826C26.2198 16.032 26.6614 15.4581 27.3526 15.1189C28.1846 14.7093 29.008 14.9568 29.616 15.5072M21.7334 0.266624C33.5158 0.266624 43.0667 9.81756 43.0667 21.6C43.0667 24.928 42.3051 28.0768 40.9462 30.8821L38.928 26.9226C39.4486 25.2394 39.728 23.4517 39.728 21.6C39.728 11.6608 31.6726 3.60529 21.7334 3.60529C14.1302 3.60529 7.62776 8.31996 4.99096 14.9866C8.72856 15.0065 12.4662 15.0243 16.2038 15.04H16.5451L17.7739 15.0421H18.2539C20.2848 15.0421 21.9318 16.689 21.9318 18.7221V19.0293H15.5254V30.3829H11.9371V19.0485L3.92642 18.9866V18.9909H0.553624C1.84216 8.43942 10.8363 0.266624 21.7334 0.266624Z" fill="black"/>
</svg>
