<svg width="43" height="43" viewBox="0 0 43 43" fill="none" xmlns="http://www.w3.org/2000/svg">
<path fill-rule="evenodd" clip-rule="evenodd" d="M29.2181 15.2405C29.7088 15.6864 30.0011 16.2624 30.2955 16.8363C30.9042 18.0124 31.5108 19.1886 32.1152 20.3648L33.9072 23.8464L35.5584 27.04L35.8784 27.6544L38.8565 33.504C35.424 38.4363 29.9648 41.8496 23.6843 42.5387C22.9106 42.624 22.1269 42.6667 21.3333 42.6667C9.62133 42.6667 0.113067 33.2288 0 21.5424H3.33867C3.4496 31.3813 11.4645 39.328 21.3333 39.328C26.5749 39.328 31.296 37.088 34.5835 33.5083L33.4229 31.2341L32.8683 30.1525H32.8789L27.7696 20.0725L25.4293 24.4693L24.9493 25.3739L23.5968 27.9189C23.5612 27.9502 23.53 27.9943 23.5029 28.0512C23.168 28.7125 22.8139 29.3632 22.4747 30.0224C22.3808 30.208 22.2741 30.3061 22.0416 30.304C20.8512 30.2891 19.6587 30.2976 18.4683 30.2976H18.1269C18.3083 29.9435 18.464 29.6427 18.6219 29.344C19.3372 27.9829 20.0555 26.6226 20.7765 25.2629C21.5303 23.8407 22.2862 22.4185 23.0443 20.9963C23.8549 19.4709 24.6507 17.9371 25.4699 16.416C25.8197 15.7653 26.2613 15.1915 26.9525 14.8523C27.7845 14.4427 28.608 14.6901 29.216 15.2405M21.3333 0C33.1157 0 42.6667 9.55093 42.6667 21.3333C42.6667 24.6613 41.9051 27.8101 40.5461 30.6155L38.528 26.656C39.0485 24.9728 39.328 23.1851 39.328 21.3333C39.328 11.3941 31.2725 3.33867 21.3333 3.33867C13.7301 3.33867 7.22773 8.05333 4.59093 14.72C8.32853 14.7399 12.0661 14.7577 15.8037 14.7733H16.1451L17.3739 14.7755H17.8539C19.8848 14.7755 21.5317 16.4224 21.5317 18.4555V18.7627H15.1253V30.1163H11.5371V18.7819L3.5264 18.72V18.7243H0.1536C1.44213 8.1728 10.4363 0 21.3333 0Z" fill="white"/>
</svg>
