<svg width="80" height="80" viewBox="0 0 80 80" fill="none" xmlns="http://www.w3.org/2000/svg">
<g clip-path="url(#clip0_16014_10085)">
<mask id="mask0_16014_10085" style="mask-type:luminance" maskUnits="userSpaceOnUse" x="0" y="0" width="80" height="80">
<path d="M80 0H0V80H80V0Z" fill="white"/>
</mask>
<g mask="url(#mask0_16014_10085)">
<path d="M34.9857 0.42847C13.5211 3.4105 0 19.5006 0 42.0482C0 64.3599 14.2157 80.1067 34.2261 79.9995C44.2964 79.9351 50.2865 77.2534 58.8593 68.9509C60.7258 67.1703 64.2851 64.1239 66.8027 62.2145C95.9936 39.9458 72.923 -4.84909 34.9857 0.42847ZM50.4167 27.4384C60.4871 32.7589 65.2184 47.8407 60.8994 60.7557C59.4887 64.9606 59.4236 65.0035 54.9961 64.982C39.6519 64.8962 27.0857 48.9134 31.4047 35.0329C34.0525 26.6232 42.4733 23.255 50.4167 27.4384Z" fill="black"/>
</g>
</g>
<defs>
<clipPath id="clip0_16014_10085">
<rect width="80" height="80" fill="white"/>
</clipPath>
</defs>
</svg>
