<?xml version="1.0" standalone="no"?>
<!DOCTYPE svg PUBLIC "-//W3C//DTD SVG 20010904//EN"
 "http://www.w3.org/TR/2001/REC-SVG-20010904/DTD/svg10.dtd">
<svg version="1.0" xmlns="http://www.w3.org/2000/svg"
 width="225.000000pt" height="225.000000pt" viewBox="0 0 225.000000 225.000000"
 preserveAspectRatio="xMidYMid meet">
<metadata>
Created by potrace 1.10, written by Peter Selinger 2001-2011
</metadata>
<style>
  path {
    fill: var(--text-color);
  }
  @media (prefers-color-scheme: dark) {
    path {
      fill: #ffffff;
    }
  }
  @media (prefers-color-scheme: light) {
    path {
      fill: #000000;
    }
  }
</style>
<g transform="translate(0.000000,225.000000) scale(0.050000,-0.050000)"
fill="#000000" stroke="none">
<path d="M2025 4080 c-989 -139 -1612 -889 -1612 -1940 0 -1040 655 -1774
1577 -1769 464 3 740 128 1135 515 86 83 250 225 366 314 1345 1038 282 3126
-1466 2880z m711 -1259 c464 -248 682 -951 483 -1553 -65 -196 -68 -198 -272
-197 -707 4 -1286 749 -1087 1396 122 392 510 549 876 354z"/>
</g>
</svg>
