<?xml version="1.0" standalone="no"?>
<!DOCTYPE svg PUBLIC "-//W3C//DTD SVG 20010904//EN" "http://www.w3.org/TR/2001/REC-SVG-20010904/DTD/svg10.dtd">
<svg version="1.0" xmlns="http://www.w3.org/2000/svg" width="200" height="50" viewBox="0 0 1000 250">
<style>
  path {
    fill: var(--text-color);
  }
  @media (prefers-color-scheme: dark) {
    path {
      fill: #ffffff;
    }
  }
  @media (prefers-color-scheme: light) {
    path {
      fill: #000000;
    }
  }
</style>
<g transform="translate(0.000000,250.000000) scale(0.100000,-0.100000)">
<path d="M4955 2489 c-110 -16 -235 -80 -320 -164 -122 -121 -175 -245 -175
-410 0 -165 53 -289 175 -410 85 -84 210 -148 320 -164 282 -41 560 139 635
410 21 76 21 244 0 320 -75 271 -353 451 -635 418z m229 -154 c87 -41 158 -112
199 -199 30 -63 32 -74 32 -176 0 -102 -2 -113 -32 -176 -41 -87 -112 -158
-199 -199 -63 -30 -74 -32 -176 -32 -102 0 -113 2 -176 32 -87 41 -158 112
-199 199 -30 63 -32 74 -32 176 0 102 2 113 32 176 41 87 112 158 199 199 63
30 74 32 176 32 102 0 113 -2 176 -32z"/>
<path d="M2730 2480 c-113 -23 -208 -85 -280 -183 l-40 -54 0 107 0 107 -85 -1
-85 -1 0 -575 0 -575 85 0 85 0 0 358 c0 336 1 361 20 407 47 116 150 190 275
197 142 8 242 -47 299 -164 l31 -63 3 -367 3 -368 84 0 85 0 0 398 c0 382 -1
401 -21 458 -39 110 -127 214 -223 262 -75 38 -163 53 -236 40z"/>
<path d="M6240 2480 c-113 -23 -208 -85 -280 -183 l-40 -54 0 107 0 107 -85 -1
-85 -1 0 -575 0 -575 85 0 85 0 0 358 c0 336 1 361 20 407 47 116 150 190 275
197 142 8 242 -47 299 -164 l31 -63 3 -367 3 -368 84 0 85 0 0 398 c0 382 -1
401 -21 458 -39 110 -127 214 -223 262 -75 38 -163 53 -236 40z"/>
<path d="M7510 2480 c-113 -23 -208 -85 -280 -183 l-40 -54 0 107 0 107 -85 -1
-85 -1 0 -575 0 -575 85 0 85 0 0 358 c0 336 1 361 20 407 47 116 150 190 275
197 142 8 242 -47 299 -164 l31 -63 3 -367 3 -368 84 0 85 0 0 398 c0 382 -1
401 -21 458 -39 110 -127 214 -223 262 -75 38 -163 53 -236 40z"/>
<path d="M1640 1880 l0 -575 85 0 85 0 0 575 0 575 -85 0 -85 0 0 -575z"/>
<path d="M1640 955 l0 -85 85 0 85 0 0 85 0 85 -85 0 -85 0 0 -85z"/>
<path d="M3750 1880 l0 -575 85 0 85 0 0 575 0 575 -85 0 -85 0 0 -575z"/>
<path d="M3750 955 l0 -85 85 0 85 0 0 85 0 85 -85 0 -85 0 0 -85z"/>
<path d="M8530 1880 l0 -575 85 0 85 0 0 575 0 575 -85 0 -85 0 0 -575z"/>
<path d="M8530 955 l0 -85 85 0 85 0 0 85 0 85 -85 0 -85 0 0 -85z"/>
</g>
</svg> 