<svg width="255" height="90" viewBox="0 0 255 90" fill="none" xmlns="http://www.w3.org/2000/svg">
<g clip-path="url(#clip0_16014_10166)">
<mask id="mask0_16014_10166" style="mask-type:luminance" maskUnits="userSpaceOnUse" x="0" y="0" width="255" height="90">
<path d="M255 0H0V90H255V0Z" fill="white"/>
</mask>
<g mask="url(#mask0_16014_10166)">
<mask id="mask1_16014_10166" style="mask-type:luminance" maskUnits="userSpaceOnUse" x="-1" y="10" width="256" height="70">
<path d="M255 10.9782H-0.0078125V79.4332H255V10.9782Z" fill="white"/>
</mask>
<g mask="url(#mask1_16014_10166)">
<path d="M76.4677 57.2051C79.1985 57.2172 81.6617 57.3416 84.0997 57.1507C84.9203 57.0865 86.3692 56.1526 86.3276 55.7356C86.2283 54.7329 85.657 53.372 84.8486 52.9193C82.2395 51.4587 79.4036 50.4118 76.717 49.0808C69.7653 45.6371 67.6322 41.7106 69.265 34.3679C70.1279 30.4884 73.8484 26.7308 80.7283 25.6963C86.3296 24.854 91.3857 26.4098 96.8697 27.2691C96.0735 30.6052 95.3407 33.6748 94.7822 36.0156C90.3858 35.81 86.4372 35.5628 82.4867 35.5092C81.907 35.5013 80.8525 36.3958 80.8333 36.904C80.8013 37.7416 81.1971 39.0435 81.8268 39.3835C85.0861 41.1436 88.3833 42.9087 91.8412 44.2101C98.7717 46.8181 100.349 57.0288 96.0672 62.0567C94.7995 63.5449 93.007 64.8604 91.1877 65.5566C83.8806 68.3525 76.5197 67.6079 69.2426 65.2322C68.7359 65.0667 67.941 64.4357 67.9884 64.1316C68.4175 61.3753 68.9505 58.6301 69.6257 55.9246C69.6974 55.6375 70.9407 55.3764 71.5236 55.5342C73.1129 55.964 74.6395 56.6247 76.4677 57.2051Z" fill="#263350"/>
<path d="M193.454 38.005C193.455 35.3403 193.574 32.987 193.415 30.6526C193.301 28.9699 193.978 28.1512 195.496 27.7683C202.451 26.0147 209.408 25.1127 216.622 26.3555C219.184 26.7969 219.314 28.0118 219.009 29.7869C218.627 32.0186 217.995 34.2074 217.456 36.4779C213.515 36.3055 209.454 36.1278 205.107 35.9376C205.107 46.0794 205.107 55.9359 205.107 65.9885C201.17 65.9885 197.502 65.9885 193.454 65.9885C193.454 56.7878 193.454 47.5562 193.454 38.005Z" fill="#263350"/>
<path d="M0.105477 66.1936C0.0707724 56.7196 -0.136576 47.2409 0.114825 37.7744C0.183263 35.1974 1.63355 32.657 2.76057 29.7848C4.28883 29.7504 6.04471 29.6162 6.63364 30.3808C9.79801 34.489 12.8476 38.7152 15.5163 43.1536C16.1424 44.1948 15.6189 46.541 14.8072 47.7281C11.042 53.2349 7.02888 58.575 3.0027 63.8978C2.28306 64.8492 1.08346 65.4376 0.105477 66.1936Z" fill="#F3A420"/>
<path d="M53.0985 57.8899C49.5416 53.3384 45.9847 48.787 42.3496 43.7927C44.9382 39.446 47.4364 35.4098 50.3487 31.6986C51.6407 30.052 53.1076 30.9912 54.0807 32.7369C57.0129 37.9973 57.5623 43.7372 56.774 49.4561C56.3695 52.3905 56.4345 56.0221 53.0985 57.8899Z" fill="#F5A620"/>
<path d="M0.0637354 66.4837C1.08397 65.4376 2.28356 64.8492 3.0032 63.8978C7.02934 58.575 11.0425 53.2349 14.8077 47.7281C15.6194 46.541 16.1429 44.1948 15.5168 43.1536C12.8482 38.7152 9.79853 34.489 6.63416 30.3809C6.04522 29.6162 4.28934 29.7504 2.86981 29.5709C3.24107 28.5242 3.81451 27.3765 4.72722 26.0296C6.33564 26.6237 7.92052 27.1613 8.81093 28.2611C10.9285 30.8768 12.678 33.7867 14.6503 36.5244C16.5762 39.1977 18.5942 41.8048 20.5718 44.4409C12.8099 53.3601 6.01347 62.9498 0.0214844 74.212C0.0214844 71.2129 0.0214843 68.9934 0.0637354 66.4837Z" fill="#DB9423"/>
<path d="M37.1751 21.4257C35.3972 23.994 33.6192 26.5624 31.5633 29.5322C28.3501 24.8098 25.3871 20.4551 22.5547 15.6695C25.0589 14.9249 27.4286 14.3828 29.807 14.3412C36.5357 14.2236 37.0954 14.8445 37.1751 21.4257Z" fill="#EB9F21"/>
<path d="M34.5878 73.7669C30.0891 73.7966 25.5904 73.8264 20.7949 73.568C22.2057 70.1958 23.7232 66.9774 25.7459 64.1163C26.2929 63.3426 28.5506 63.1452 29.7103 63.5593C32.8852 64.6927 35.4915 70.5633 34.5878 73.7669Z" fill="#F5A520"/>
<path d="M53.132 58.0932C56.4352 56.0221 56.3702 52.3905 56.7746 49.4561C57.563 43.7372 57.0136 37.9973 54.0814 32.7369C53.1083 30.9912 51.6415 30.052 50.3494 31.6986C47.4371 35.4098 44.9389 39.4459 42.2618 43.5932C40.8582 43.0136 39.8418 42.0214 41.0521 40.3465C44.0571 36.1876 47.0988 32.0553 50.5681 27.8304C52.4206 28.7122 54.3083 29.3696 55.1575 30.6933C58.7222 36.2492 59.595 42.5532 58.8229 48.9636C58.3518 52.8739 57.6358 56.9279 54.3776 59.8087C53.9734 59.3046 53.569 58.8006 53.132 58.0932Z" fill="#E89D22"/>
<path d="M37.3702 21.3153C37.0951 14.8445 36.5354 14.2236 29.8067 14.3412C27.4284 14.3828 25.0587 14.9249 22.5367 15.4423C21.6657 14.8516 20.943 14.0571 19.8594 12.8657C27.3421 10.5815 34.1523 10.1924 40.9907 12.6883C42.401 13.2031 42.6851 13.9648 41.6565 15.287C40.1864 17.1769 38.9193 19.2246 37.3702 21.3153Z" fill="#CF8B24"/>
<path d="M54.4125 60.0353C57.6343 56.9279 58.3504 52.8739 58.8214 48.9637C59.5935 42.5532 58.7206 36.2492 55.1561 30.6933C54.3068 29.3697 52.4191 28.7122 50.7637 27.7401C50.8231 27.1447 51.1278 26.5575 51.8626 25.8982C53.6015 26.8037 55.3177 27.5193 56.1458 28.8063C59.06 33.3357 60.4045 38.4536 60.8484 43.8036C61.0598 46.3518 61.2166 48.9045 61.3982 51.4551C59.9249 54.4936 58.5221 57.5693 56.9513 60.5566C56.043 62.2839 55.1002 61.9358 54.4125 60.0353Z" fill="#D89123"/>
<path d="M20.7611 44.3562C18.5945 41.8048 16.5766 39.1977 14.6506 36.5244C12.6783 33.7868 10.9287 30.8768 8.81119 28.2611C7.92084 27.1613 6.33593 26.6237 4.82812 25.8302C4.99738 25.1223 5.38022 24.3988 5.81838 23.7105C6.71852 22.2965 7.83077 22.1249 8.80863 23.524C13.0102 29.536 17.0465 35.6669 21.3826 41.5788C22.4568 43.0435 21.7496 43.4844 20.7611 44.3562Z" fill="#C88624"/>
<path d="M61.444 51.1893C61.2173 48.9045 61.0605 46.3518 60.8491 43.8036C60.4051 38.4536 59.0607 33.3357 56.1464 28.8063C55.3184 27.5193 53.6022 26.8037 52.0527 25.8162C52.6107 24.5163 53.4092 23.2261 54.4186 21.5954C61.441 30.5327 64.5219 39.9769 61.444 51.1893Z" fill="#C98724"/>
<path d="M34.8194 73.8098C35.4898 70.5633 32.8834 64.6928 29.7085 63.5592C28.5488 63.1452 26.2913 63.3426 25.7443 64.1162C23.7214 66.9773 22.2039 70.1957 20.4959 73.5238C19.6837 73.7677 18.8721 73.7677 17.3359 73.7677C20.0489 69.3443 22.4671 65.4017 25.1095 61.1731C25.48 60.7409 25.5675 60.5654 25.5959 60.3605C25.5959 60.3605 25.6093 60.4099 25.8576 60.4101C31.697 60.5106 37.0972 66.807 37.1711 73.3118C36.4649 73.4922 35.7588 73.6725 34.8194 73.8098Z" fill="#E89D22"/>
<path d="M28.791 57.1505C29.4096 56.4861 30.0281 55.8217 31.3218 54.4321C35.5012 60.2819 39.4041 65.7446 43.5354 71.5269C41.923 72.0487 41.0602 72.3279 39.9578 72.3961C39.2219 70.918 38.9886 69.4432 38.1818 68.4212C35.1529 64.5842 31.9369 60.895 28.791 57.1505Z" fill="#C88624"/>
<path d="M28.5975 57.2362C31.9354 60.895 35.1515 64.5842 38.1803 68.4211C38.9871 69.4432 39.2203 70.918 39.7226 72.4335C39.0313 72.8696 38.3344 73.0571 37.4049 73.2783C37.0986 66.807 31.6984 60.5106 25.8359 60.399C26.5116 59.3659 27.4585 58.3439 28.5975 57.2362Z" fill="#D89123"/>
<path d="M25.442 60.4178C25.569 60.5654 25.4816 60.7409 25.2111 60.9695C25.1534 60.8597 25.22 60.6675 25.442 60.4178Z" fill="#D89123"/>
<path fill-rule="evenodd" clip-rule="evenodd" d="M117.226 79.4336V75.1116V65.4814C117.777 65.6413 118.283 65.8093 118.762 65.9681C119.721 66.2859 120.569 66.5674 121.44 66.6749C129.446 67.6643 137.938 65.6669 141.031 55.7867C142.428 51.3248 142.53 46.9515 142.304 42.3549C141.993 36.0472 136.333 28.6464 130.708 27.0457C122.241 24.6365 114.028 25.8552 105.893 27.8998V79.4336H117.226ZM125.363 56.4776C122.536 57.0564 119.461 57.2896 117.244 54.5915C117.244 54.4984 117.244 54.4055 117.244 54.3127C117.241 54.3091 117.239 54.3055 117.236 54.302C117.228 48.1564 117.228 42.3003 117.228 36.4813C118.474 36.1997 119.652 36.0497 120.754 36.0221C121.459 36.0043 122.135 36.0369 122.777 36.1175C129.148 36.9163 132.273 42.4342 130.305 50.3584C129.553 53.3877 128.422 55.8515 125.363 56.4776Z" fill="#263350"/>
<path fill-rule="evenodd" clip-rule="evenodd" d="M185.79 48.0755C185.974 40.1022 184.565 32.8108 177.319 27.7277C172.284 25.0116 167.168 24.7431 162.05 26.2106C153.288 28.723 149.434 35.7279 148.67 43.8036C148.088 49.9673 149.108 55.8305 153.211 60.8918C159.619 68.7971 174.171 68.1585 182.033 65.1019C182.543 64.9038 183.2 64.0578 183.142 63.5943C182.876 61.4845 182.505 59.3881 182.151 57.3939C182.035 56.742 181.921 56.101 181.814 55.4741C180.511 55.676 179.259 55.918 178.042 56.1531C175.434 56.6574 172.99 57.13 170.55 57.1065C165.213 57.0552 160.401 54.1235 161.003 50.1723H164.148C165.837 50.1723 167.525 50.1711 169.215 50.17C173.815 50.1669 178.416 50.1638 183.017 50.1833C184.53 50.1897 185.742 50.1112 185.79 48.0755ZM160.954 40.6467C161.667 37.8409 163.455 36.1069 166.472 35.4407C166.558 35.4409 166.643 35.4415 166.728 35.4425C166.732 35.4416 166.736 35.4407 166.741 35.4398C171.068 35.452 172.762 36.5035 173.849 40.2561C173.971 40.6749 174.084 41.1274 174.193 41.6158H160.756C160.809 41.2796 160.874 40.9566 160.954 40.6467Z" fill="#263350"/>
<path fill-rule="evenodd" clip-rule="evenodd" d="M254.951 38.6057C254.946 31.5861 250.063 26.3664 242.728 25.83C236.836 24.676 231.416 25.8546 225.847 27.0657C225.483 27.1448 225.118 27.2241 224.753 27.3029L226.227 36.3203C227.52 36.2261 228.789 36.1184 230.04 36.0121C232.859 35.7728 235.592 35.5407 238.328 35.4864C241.948 35.4144 244.278 38.3644 243.735 41.2047C242.855 41.2047 241.975 41.1563 241.102 41.1083C239.175 41.0023 237.284 40.8984 235.519 41.3214C235.274 41.3801 235.027 41.4388 234.779 41.4978C231.126 42.3663 227.181 43.3041 224.412 45.5123C220.341 48.7576 220.364 54.0067 221.825 58.8008C223.086 62.94 226.432 65.3379 230.491 66.1115C237.466 67.4403 244.441 66.9436 251.488 65.8255C254.857 65.2909 255.039 63.9732 254.996 61.3329C254.91 56.0468 254.925 50.7591 254.94 45.4714C254.947 43.1827 254.953 40.8941 254.951 38.6057ZM235.744 49.903C238.01 48.9157 242.827 49.4278 244.057 50.6376C244.057 50.7395 244.057 50.8405 244.058 50.9407L244.06 50.9431C244.061 52.4485 244.061 53.8345 244.062 55.3092C244.062 56.2036 244.062 57.114 244.062 58.1C244.008 58.0944 243.953 58.089 243.899 58.0837C243.083 58.0041 242.281 57.9498 241.495 57.8966C241.37 57.8882 241.247 57.8799 241.124 57.8714C239.281 57.7451 237.521 57.6033 235.858 57.1268C235.701 57.0821 235.542 57.0165 235.381 56.9336C234.257 56.3534 233.096 54.9222 232.94 53.8214C232.92 53.6845 232.923 53.5387 232.945 53.3867C233.102 52.3226 234.204 50.9558 235.16 50.2355C235.326 50.1099 235.523 49.9993 235.744 49.903Z" fill="#263350"/>
</g>
</g>
</g>
<defs>
<clipPath id="clip0_16014_10166">
<rect width="255" height="90" fill="white"/>
</clipPath>
</defs>
</svg>
