<svg width="399" height="108" viewBox="0 0 399 108" fill="none" xmlns="http://www.w3.org/2000/svg">
<g clip-path="url(#clip0_16008_9277)">
<path d="M119.373 72.9787C123.636 72.9977 127.481 73.1919 131.287 72.8939C132.568 72.7936 134.83 71.3358 134.765 70.6848C134.61 69.1195 133.718 66.9951 132.456 66.2884C128.383 64.0083 123.956 62.374 119.762 60.2962C108.91 54.9203 105.58 48.7907 108.129 37.3283C109.476 31.2722 115.284 25.4062 126.024 23.7913C134.768 22.4764 142.661 24.9051 151.222 26.2466C149.979 31.4545 148.835 36.2463 147.963 39.9005C141.1 39.5795 134.936 39.1937 128.769 39.11C127.864 39.0977 126.218 40.494 126.188 41.2873C126.138 42.5949 126.756 44.6273 127.739 45.158C132.827 47.9057 137.974 50.6611 143.372 52.6926C154.191 56.764 156.654 72.7035 149.969 80.5524C147.99 82.8756 145.192 84.9293 142.352 86.016C130.945 90.3807 119.454 89.2183 108.094 85.5096C107.303 85.2513 106.062 84.2663 106.136 83.7915C106.806 79.4888 107.638 75.2033 108.692 70.9799C108.804 70.5316 110.745 70.1241 111.655 70.3704C114.136 71.0414 116.519 72.0728 119.373 72.9787Z" fill="white"/>
<path d="M301.999 43.006C302 38.8462 302.185 35.1726 301.937 31.5284C301.759 28.9017 302.816 27.6235 305.186 27.0259C316.043 24.2883 326.903 22.8802 338.165 24.8204C342.165 25.5094 342.367 27.406 341.892 30.177C341.295 33.6608 340.309 37.0778 339.467 40.6221C333.315 40.353 326.975 40.0756 320.19 39.7787C320.19 55.6108 320.19 70.9975 320.19 86.6903C314.044 86.6903 308.317 86.6903 301.999 86.6903C301.999 72.3273 301.999 57.9161 301.999 43.006Z" fill="white"/>
<path d="M0.167087 87.0105C0.112911 72.2208 -0.210774 57.4239 0.181681 42.6461C0.288517 38.6232 2.55251 34.6575 4.31187 30.1738C6.69759 30.1201 9.43864 29.9106 10.358 31.1042C15.2978 37.5174 20.0585 44.1148 24.2245 51.0434C25.2018 52.6688 24.3846 56.3313 23.1175 58.1845C17.2398 66.781 10.975 75.1173 4.68985 83.4266C3.56644 84.9118 1.69379 85.8303 0.167087 87.0105Z" fill="#F3A420"/>
<path d="M82.893 74.0478C77.3405 66.9426 71.7879 59.8375 66.1133 52.0411C70.1542 45.2555 74.0542 38.9548 78.6004 33.1613C80.6174 30.5909 82.9073 32.0571 84.4263 34.7822C89.0037 42.994 89.8613 51.9544 88.6307 60.8821C87.9993 65.4629 88.1008 71.1321 82.893 74.0478Z" fill="#F5A620"/>
<path d="M0.101113 87.4634C1.69377 85.8303 3.56642 84.9118 4.68983 83.4266C10.9749 75.1173 17.2398 66.781 23.1175 58.1845C24.3846 56.3313 25.2018 52.6688 24.2245 51.0434C20.0585 44.1148 15.2978 37.5174 10.358 31.1043C9.43862 29.9106 6.69757 30.1201 4.48159 29.8398C5.06115 28.2059 5.95634 26.4143 7.38113 24.3117C9.89199 25.2391 12.3661 26.0783 13.7561 27.7952C17.0617 31.8784 19.7928 36.4211 22.8718 40.6948C25.8783 44.868 29.0285 48.9378 32.1156 53.053C19.9987 66.9765 9.38906 81.9467 0.0351562 99.5278C0.0351562 94.846 0.0351561 91.3811 0.101113 87.4634Z" fill="#DB9423"/>
<path d="M58.0364 17.1246C55.2609 21.1339 52.4854 25.1433 49.276 29.7794C44.26 22.4075 39.6345 15.6095 35.2129 8.13873C39.1222 6.97639 42.8214 6.13013 46.5343 6.06524C57.0382 5.88166 57.912 6.8509 58.0364 17.1246Z" fill="#EB9F21"/>
<path d="M53.9965 98.8329C46.9737 98.8793 39.9508 98.9258 32.4648 98.5224C34.6671 93.2581 37.036 88.234 40.1937 83.7676C41.0476 82.5598 44.5719 82.2517 46.3823 82.8981C51.3385 84.6675 55.4072 93.8319 53.9965 98.8329Z" fill="#F5A520"/>
<path d="M82.9442 74.3652C88.1007 71.1321 87.9992 65.4629 88.6306 60.8821C89.8612 51.9544 89.0036 42.994 84.4262 34.7822C82.9072 32.057 80.6174 30.5909 78.6003 33.1613C74.0541 38.9548 70.1541 45.2555 65.9751 51.7297C63.7839 50.8248 62.1973 49.276 64.0866 46.6613C68.7776 40.169 73.526 33.7182 78.9418 27.1228C81.8336 28.4994 84.7805 29.5257 86.1062 31.592C91.6708 40.2651 93.0333 50.1061 91.828 60.1133C91.0927 66.2174 89.9749 72.5461 84.8887 77.0432C84.2576 76.2563 83.6264 75.4695 82.9442 74.3652Z" fill="#E89D22"/>
<path d="M58.3415 16.9523C57.9121 6.8509 57.0383 5.88166 46.5344 6.06524C42.8216 6.13013 39.1224 6.97639 35.1854 7.78409C33.8257 6.86197 32.6975 5.62167 31.0059 3.76191C42.6869 0.196064 53.3182 -0.411329 63.9933 3.48499C66.1949 4.28856 66.6384 5.47769 65.0328 7.54172C62.7378 10.4919 60.7598 13.6886 58.3415 16.9523Z" fill="#CF8B24"/>
<path d="M84.9441 77.3969C89.9736 72.5461 91.0914 66.2174 91.8266 60.1133C93.032 50.1061 91.6694 40.2651 86.1049 31.592C84.7791 29.5257 81.8322 28.4994 79.248 26.9819C79.3408 26.0524 79.8165 25.1357 80.9635 24.1065C83.6781 25.52 86.3571 26.6371 87.6498 28.6462C92.1992 35.7169 94.298 43.7063 94.991 52.0581C95.321 56.036 95.5658 60.0209 95.8492 64.0026C93.5493 68.746 91.3594 73.5473 88.9073 78.2107C87.4894 80.9072 86.0176 80.3638 84.9441 77.3969Z" fill="#D89123"/>
<path d="M32.4115 52.9208C29.0293 48.9378 25.8792 44.868 22.8726 40.6948C19.7937 36.4211 17.0625 31.8784 13.7569 27.7952C12.367 26.0783 9.89285 25.2391 7.53906 24.0004C7.80328 22.8953 8.40092 21.7659 9.08492 20.6914C10.4901 18.484 12.2264 18.2161 13.7529 20.4003C20.3119 29.7853 26.6128 39.3562 33.3817 48.585C35.0587 50.8715 33.9546 51.5598 32.4115 52.9208Z" fill="#C88624"/>
<path d="M95.9202 63.5877C95.5663 60.0209 95.3215 56.036 94.9915 52.0581C94.2985 43.7063 92.1997 35.7169 87.6503 28.6462C86.3577 26.6371 83.6786 25.52 81.2598 23.9785C82.1308 21.9492 83.3774 19.9352 84.9531 17.3895C95.9155 31.3412 100.725 46.0843 95.9202 63.5877Z" fill="#C98724"/>
<path d="M54.3593 98.8999C55.4058 93.8319 51.3371 84.6675 46.3809 82.898C44.5705 82.2517 41.0463 82.5598 40.1924 83.7675C37.0346 88.2339 34.6657 93.258 31.9994 98.4533C30.7315 98.8341 29.4645 98.8341 27.0664 98.8341C31.3016 91.9289 35.0765 85.7742 39.2015 79.173C39.7799 78.4984 39.9164 78.2244 39.9608 77.9046C39.9608 77.9046 39.9817 77.9817 40.3693 77.982C49.485 78.1388 57.9151 87.968 58.0305 98.1225C56.9281 98.404 55.8257 98.6855 54.3593 98.8999Z" fill="#E89D22"/>
<path d="M44.9453 72.8935C45.9109 71.8563 46.8765 70.8191 48.896 68.6499C55.4204 77.7818 61.5131 86.3095 67.9623 95.3361C65.4453 96.1506 64.0983 96.5865 62.3775 96.6929C61.2286 94.3856 60.8645 92.0833 59.605 90.4878C54.8767 84.4981 49.8563 78.739 44.9453 72.8935Z" fill="#C88624"/>
<path d="M44.645 73.0274C49.8557 78.739 54.8762 84.4981 59.6044 90.4878C60.8639 92.0833 61.228 94.3856 62.0121 96.7514C60.9329 97.4321 59.8449 97.7249 58.394 98.0701C57.9158 87.968 49.4857 78.1389 40.334 77.9647C41.3887 76.3519 42.8669 74.7566 44.645 73.0274Z" fill="#D89123"/>
<path d="M39.7194 77.9941C39.9176 78.2244 39.7812 78.4984 39.3589 78.8553C39.2689 78.6839 39.3728 78.3838 39.7194 77.9941Z" fill="#D89123"/>
<path fill-rule="evenodd" clip-rule="evenodd" d="M183 107.679V100.932V85.8987C183.859 86.1483 184.65 86.4105 185.397 86.6584C186.894 87.1546 188.218 87.594 189.577 87.7618C202.075 89.3063 215.332 86.1882 220.161 70.7645C222.342 63.7992 222.5 56.9722 222.147 49.7966C221.663 39.9498 212.827 28.3967 204.045 25.8979C190.828 22.1369 178.007 24.0394 165.307 27.2312V107.679H183ZM195.702 71.8431C191.288 72.7467 186.489 73.1107 183.028 68.8987C183.028 68.7535 183.027 68.6084 183.027 68.4635C183.023 68.4579 183.019 68.4523 183.015 68.4468C183.002 58.8531 183.002 49.7114 183.002 40.6275C184.947 40.1879 186.786 39.9537 188.506 39.9106C189.608 39.8829 190.662 39.9338 191.664 40.0595C201.61 41.3066 206.489 49.9203 203.417 62.2906C202.242 67.0196 200.477 70.8657 195.702 71.8431Z" fill="white"/>
<path fill-rule="evenodd" clip-rule="evenodd" d="M290.033 58.7268C290.32 46.28 288.121 34.8976 276.809 26.9625C268.95 22.7224 260.964 22.3033 252.974 24.5941C239.295 28.5162 233.279 39.4513 232.087 52.0581C231.178 61.6801 232.771 70.8329 239.176 78.734C249.179 91.0747 271.895 90.0778 284.169 85.3062C284.964 84.9969 285.99 83.6763 285.899 82.9528C285.485 79.6592 284.905 76.3865 284.352 73.2735C284.172 72.2558 283.994 71.2552 283.827 70.2766C281.792 70.5917 279.838 70.9695 277.939 71.3365C273.867 72.1238 270.051 72.8615 266.242 72.8249C257.911 72.7447 250.399 68.1681 251.339 62H256.249C258.885 62 261.521 61.9982 264.158 61.9964C271.34 61.9916 278.522 61.9868 285.704 62.0173C288.066 62.0273 289.959 61.9047 290.033 58.7268ZM251.262 47.13C252.376 42.7499 255.167 40.043 259.876 39.003C260.011 39.0033 260.144 39.0042 260.276 39.0058C260.282 39.0044 260.289 39.003 260.296 39.0016C267.052 39.0207 269.696 40.6621 271.393 46.5202C271.583 47.174 271.76 47.8803 271.93 48.6427L271.93 48.6427L250.954 48.6427L250.953 48.6427C251.036 48.118 251.138 47.6137 251.262 47.13Z" fill="white"/>
<path fill-rule="evenodd" clip-rule="evenodd" d="M397.998 43.9438C397.99 32.9857 390.367 24.8374 378.917 24C369.718 22.1985 361.257 24.0385 352.564 25.929C351.996 26.0526 351.426 26.1764 350.856 26.2994L353.157 40.3762C355.176 40.2291 357.156 40.061 359.11 39.895C363.51 39.5215 367.776 39.1592 372.048 39.0743C377.698 38.962 381.336 43.5671 380.488 48.0011C379.115 48.0011 377.741 47.9255 376.378 47.8505C373.37 47.6851 370.418 47.5228 367.663 48.1832C367.28 48.2749 366.895 48.3665 366.508 48.4586C360.805 49.8144 354.647 51.2784 350.323 54.7255C343.968 59.7916 344.004 67.9858 346.285 75.4698C348.254 81.9313 353.477 85.6747 359.814 86.8822C370.702 88.9567 381.591 88.1813 392.591 86.4358C397.851 85.6013 398.135 83.5442 398.068 79.4225C397.934 71.1706 397.957 62.9161 397.98 54.6616C397.991 51.0889 398.001 47.5162 397.998 43.9438ZM368.014 61.5796C371.551 60.0385 379.071 60.8379 380.991 62.7265C380.991 62.8855 380.991 63.0432 380.992 63.1996C380.993 63.2008 380.994 63.202 380.995 63.2033C380.997 65.5534 380.998 67.7171 380.999 70.0191C380.999 71.4154 380.999 72.8365 380.999 74.3757C380.914 74.367 380.829 74.3586 380.744 74.3503C379.47 74.226 378.219 74.1413 376.991 74.0582C376.797 74.0451 376.605 74.0321 376.413 74.0189C373.535 73.8218 370.788 73.6004 368.191 72.8565C367.947 72.7867 367.698 72.6844 367.447 72.555C365.692 71.6492 363.88 69.415 363.636 67.6966C363.605 67.4829 363.61 67.2553 363.645 67.018C363.889 65.3569 365.609 63.2232 367.102 62.0987C367.362 61.9026 367.669 61.73 368.014 61.5796Z" fill="white"/>
</g>
<defs>
<clipPath id="clip0_16008_9277">
<rect width="398.085" height="106.863" fill="white" transform="translate(-0.00976562 0.815353)"/>
</clipPath>
</defs>
</svg>
